<?xml version="1.0" encoding="UTF-8" standalone="no"?>
<!DOCTYPE svg PUBLIC "-//W3C//DTD SVG 1.1//EN" "http://www.w3.org/Graphics/SVG/1.1/DTD/svg11.dtd">
<svg width="100%" height="100%" viewBox="0 0 8559 2849" version="1.1" xmlns="http://www.w3.org/2000/svg" xmlns:xlink="http://www.w3.org/1999/xlink" xml:space="preserve" xmlns:serif="http://www.serif.com/" style="fill-rule:evenodd;clip-rule:evenodd;stroke-linejoin:round;stroke-miterlimit:2;">
    <g transform="matrix(1,0,0,1,-10519.214603,0)">
        <g id="Logo" transform="matrix(4.166667,0,0,2.655017,10519.214603,0)">
            <rect x="0" y="0" width="2054" height="1073" style="fill:none;"/>
            <g id="Layer-1" serif:id="Layer 1" transform="matrix(1,0,0,1.569356,-0,-305.082782)">
                <g transform="matrix(1.82032,0,0,1.82032,840.348559,611.946695)">
                    <path d="M0,-114.283L0,-111.637C-6.734,-111.637 -11.964,-110.001 -15.682,-106.733C-19.404,-103.457 -23.569,-95.282 -28.173,-82.201L-56.349,0L-61.374,0L-98.411,-101.825C-98.832,-102.897 -99.205,-103.852 -99.538,-104.691C-99.644,-104.954 -99.747,-105.207 -99.842,-105.448C-99.875,-105.533 -99.904,-105.613 -99.937,-105.69C-100.028,-105.924 -100.12,-106.147 -100.208,-106.356C-100.435,-106.916 -100.628,-107.395 -100.793,-107.79C-100.797,-107.794 -100.797,-107.798 -100.8,-107.802C-101.412,-108.991 -102.319,-110.155 -103.904,-110.854C-103.955,-110.876 -104.003,-110.898 -104.054,-110.912C-104.445,-111.055 -104.896,-111.179 -105.408,-111.263C-105.778,-111.326 -106.209,-111.377 -106.674,-111.417C-106.689,-111.421 -106.7,-111.421 -106.714,-111.421C-107.838,-111.564 -109.13,-111.637 -110.579,-111.637L-116.666,-111.637L-116.666,-114.283L-56.085,-114.283L-56.085,-111.637C-60.145,-111.637 -64.243,-111.593 -68.386,-111.505C-70.538,-111.457 -72.126,-111.139 -73.162,-110.546C-73.173,-110.539 -73.184,-110.535 -73.191,-110.528C-73.517,-110.338 -73.784,-110.122 -73.997,-109.877C-74.007,-109.866 -74.015,-109.855 -74.022,-109.847C-74.549,-109.287 -74.831,-108.629 -74.666,-107.97C-74.513,-107.355 -73.971,-105.767 -73.389,-104.135C-73.389,-104.131 -73.389,-104.123 -73.385,-104.12L-73.016,-102.879L-71.79,-99.553L-47.884,-34.654L-30.116,-86.685C-28.03,-92.877 -26.983,-97.653 -26.983,-101.02C-26.983,-108.094 -32.894,-111.637 -44.708,-111.637L-44.708,-114.283L0,-114.283Z" style="fill:rgb(22,22,24);fill-rule:nonzero;"/>
                </g>
                <g transform="matrix(1.82032,0,0,1.82032,936.117957,345.970286)">
                    <path d="M0,-21.161C-2.796,-23.979 -6.295,-25.395 -10.485,-25.395C-14.683,-25.395 -18.178,-23.979 -20.974,-21.161C-23.77,-18.339 -25.168,-14.811 -25.168,-10.58C-25.168,-6.346 -23.77,-2.814 -20.974,0.004C-18.178,2.825 -14.683,4.234 -10.485,4.234C-6.295,4.234 -2.796,2.825 0,0.004C2.796,-2.814 4.198,-6.346 4.198,-10.58C4.198,-14.811 2.796,-18.339 0,-21.161" style="fill:rgb(22,22,24);fill-rule:nonzero;"/>
                </g>
                <g transform="matrix(1.82032,0,0,1.82032,992.463411,408.250347)">
                    <path d="M0,108.198L0,110.58L-77.246,110.58L-77.246,108.198C-72.774,108.198 -68.668,108.062 -64.935,107.788L-64.928,107.788C-62.625,107.568 -56.543,106.921 -54.483,106.038C-52.001,104.973 -51.581,102.884 -51.222,101.424C-51.112,100.395 -51.057,99.188 -51.057,97.804L-51.057,15.16C-51.057,14.669 -51.064,14.208 -51.079,13.769C-51.167,12.587 -51.453,10.01 -52.345,8.437C-52.349,8.433 -52.349,8.429 -52.356,8.426C-52.51,8.148 -52.689,7.903 -52.887,7.701C-52.927,7.661 -52.968,7.621 -53.008,7.584C-54.64,5.996 -56.627,5.414 -58.64,4.99C-62.538,4.484 -68.745,4.232 -77.246,4.232L-77.246,1.849L-26.189,-2.382L-26.189,97.833C-26.189,101.38 -25.926,103.682 -25.395,104.743C-25.043,105.277 -24.253,105.808 -23.016,106.339C-19.312,107.579 -11.642,108.198 0,108.198" style="fill:rgb(22,22,24);fill-rule:nonzero;"/>
                </g>
                <g transform="matrix(1.82032,0,0,1.82032,1110.939843,513.894616)">
                    <path d="M0,-4.762C0,-21.862 -1.917,-34.788 -4.576,-43.91C-6.104,-49.156 -11.501,-56.054 -19.353,-57.407C-26.31,-58.605 -32.21,-54.384 -32.837,-53.922C-36.342,-51.338 -38.212,-47.974 -39.62,-44.58C-45.433,-30.565 -45.555,-10.744 -45.502,-4.762L0,-4.762ZM-45.502,-1.588C-45.502,17.377 -43.253,31.113 -38.756,39.62C-34.259,48.127 -27.426,52.38 -18.253,52.38C-8.556,52.38 0,49.098 7.407,42.53C16.402,34.544 20.899,23.718 20.899,10.052L23.016,10.052C23.016,23.28 18.783,34.127 10.317,42.592C1.852,51.057 -9.437,55.29 -23.544,55.29C-35.362,55.29 -46.122,50.793 -55.819,41.799C-67.286,31.216 -73.015,17.373 -73.015,0.264C-73.015,-18.254 -67.373,-33.333 -56.083,-44.973C-46.208,-55.026 -35.098,-60.052 -22.751,-60.052C-11.289,-60.052 -1.765,-56.7 5.82,-49.999C16.931,-40.12 22.486,-23.983 22.486,-1.588L-45.502,-1.588Z" style="fill:rgb(22,22,24);fill-rule:nonzero;"/>
                </g>
                <g transform="matrix(1.82032,0,0,1.82032,1530.079244,415.174662)">
                    <path d="M0,50.793L0,62.962C0,67.022 0.086,70.898 0.264,74.602C0.264,86.949 -1.149,95.415 -3.968,99.999C-7.85,106.348 -15.344,109.522 -26.455,109.522C-37.037,109.522 -44.8,106.968 -49.735,101.851C-54.674,96.737 -57.142,89.417 -57.142,79.893L-57.142,4.762L-78.306,4.762L-78.306,2.381C-63.838,-1.161 -52.938,-9.573 -45.614,-22.858C-39.72,-33.485 -36.772,-45.444 -36.772,-58.729L-32.275,-58.729L-32.275,-2.91L-1.852,-2.91L-1.852,4.762L-32.275,4.762L-32.275,76.528C-32.275,86.027 -31.932,92.186 -31.237,94.997C-29.505,101.685 -25.607,105.025 -19.544,105.025C-12.442,105.025 -7.767,101.164 -5.515,93.443C-3.956,88.177 -3.175,78.173 -3.175,63.429L-3.175,50.793L0,50.793Z" style="fill:rgb(22,22,24);fill-rule:nonzero;"/>
                </g>
                <g transform="matrix(1.82032,0,0,1.82032,1665.297523,407.558444)">
                    <path d="M0,108.684C0,108.684 -0.011,108.684 -0.033,108.683C-0.547,108.656 -7.077,108.312 -10.046,107.564C-12.502,106.946 -14.277,106.32 -14.903,103.257C-15.06,102.063 -15.137,100.504 -15.137,98.58L-15.137,49.129C-15.137,34.065 -11.799,21.746 -5.124,12.173C-0.033,4.732 5.061,1.011 10.152,1.011C14.386,1.011 17.259,2.207 18.767,4.601C19.276,5.461 19.506,6.247 19.587,6.555C19.598,6.606 19.605,6.646 19.609,6.668C19.616,6.683 19.616,6.69 19.616,6.69C19.59,6.683 19.565,6.68 19.539,6.676C13.782,7.265 9.061,11.346 7.521,16.766C7.521,16.773 7.517,16.777 7.517,16.784C7.173,17.996 6.99,19.276 6.99,20.598C6.99,24.151 8.315,27.397 10.496,29.864C12.732,32.393 15.865,34.106 19.393,34.505C19.418,34.508 19.448,34.512 19.473,34.512C19.971,34.567 20.476,34.596 20.988,34.596C28.718,34.596 34.987,28.327 34.987,20.598C34.991,20.426 34.991,20.173 34.987,19.866C34.961,18.113 34.848,13.512 32.425,8.886C31.657,7.419 29.201,3.506 24.374,0.469C19.433,-2.642 10.478,-1.354 10.478,-1.354C3.312,-0.259 -2.756,4.056 -7.729,11.591C-11.96,17.94 -14.434,24.733 -15.137,31.961L-15.137,-1.635L-66.194,2.332L-66.194,4.714C-54.907,4.714 -47.676,5.161 -44.499,6.043C-43.441,6.401 -42.296,7.466 -41.063,9.245C-40.36,10.138 -40.005,12.356 -40.005,15.91L-40.005,98.55C-40.005,98.949 -40.009,99.333 -40.02,99.703C-40.042,100.563 -40.085,101.339 -40.159,102.038C-40.155,102.045 -40.159,102.049 -40.159,102.053C-40.646,105.167 -42.354,106.418 -44.356,107.122L-44.36,107.122C-44.799,107.275 -45.253,107.403 -45.71,107.517C-47.083,107.861 -49.345,108.131 -51.354,108.322C-51.555,108.34 -51.753,108.358 -51.95,108.376C-52.067,108.388 -52.188,108.398 -52.305,108.41C-52.437,108.42 -52.573,108.432 -52.708,108.442C-52.829,108.454 -52.95,108.461 -53.066,108.472C-53.18,108.483 -53.297,108.49 -53.411,108.497C-54.197,108.559 -54.841,108.603 -55.218,108.625C-55.273,108.629 -55.321,108.633 -55.365,108.637C-55.409,108.64 -55.445,108.64 -55.479,108.644C-55.555,108.647 -55.599,108.651 -55.599,108.651C-58.864,108.849 -62.396,108.944 -66.194,108.944L-66.194,111.326L11.052,111.326L11.052,108.944C11.052,108.944 1.427,108.753 0,108.684" style="fill:rgb(22,22,24);fill-rule:nonzero;"/>
                </g>
                <g transform="matrix(1.82032,0,0,1.82032,1184.113427,417.865641)">
                    <path d="M0,-0.553C1.983,-0.41 3.616,-0.231 4.904,0C3.598,-0.257 1.867,-0.432 0,-0.553" style="fill:rgb(22,22,24);fill-rule:nonzero;"/>
                </g>
                <g transform="matrix(1.82032,0,0,1.82032,1412.071181,407.746483)">
                    <path d="M0,108.654L0,111.044L-67.742,111.044L-67.742,108.654C-65.239,108.654 -62.395,108.519 -59.197,108.244C-59.182,108.244 -59.164,108.24 -59.149,108.24C-58.761,108.207 -58.366,108.171 -57.967,108.134C-55.208,107.863 -52.689,107.399 -50.417,106.747C-50.41,106.743 -50.406,106.743 -50.398,106.74C-48.514,106.008 -47.548,105.13 -47.057,103.772C-46.651,102.637 -46.574,101.174 -46.574,99.179L-46.574,31.027C-46.574,22.522 -47.288,16.04 -48.686,11.605C-50.992,4.351 -55.233,0.71 -61.389,0.71C-69.506,0.71 -76.119,5.771 -81.243,15.868C-85.119,23.491 -87.853,33.589 -89.448,46.186L-89.448,101.192C-89.448,106.315 -84.288,107.344 -84.288,107.344C-84.277,107.347 -84.266,107.351 -84.255,107.351C-82.923,107.644 -81.166,107.904 -78.981,108.134C-75.56,108.482 -72.5,108.654 -69.872,108.654L-69.872,111.044L-137.592,111.044L-137.592,108.654C-135.872,108.654 -134.159,108.621 -132.454,108.551C-130.32,108.467 -128.201,108.328 -126.093,108.134C-125.69,108.094 -125.292,108.054 -124.896,108.003C-124.633,107.973 -124.37,107.94 -124.109,107.904C-123.868,107.874 -123.626,107.842 -123.389,107.801C-123.271,107.787 -123.154,107.768 -123.037,107.75C-122.755,107.706 -122.478,107.662 -122.203,107.611C-121.954,107.571 -121.705,107.523 -121.46,107.475C-121.211,107.431 -120.97,107.381 -120.728,107.329C-120.486,107.281 -120.249,107.23 -120.011,107.172C-119.952,107.161 -119.897,107.15 -119.839,107.135C-119.637,107.091 -119.455,107.048 -119.29,107.004C-119.154,106.974 -119.015,106.938 -118.88,106.904C-118.865,106.901 -118.851,106.897 -118.832,106.894C-118.605,106.835 -118.382,106.773 -118.159,106.711C-118.141,106.703 -118.119,106.699 -118.1,106.692C-117.054,106.326 -115.377,105.419 -114.682,103.278C-114.481,102.663 -114.36,101.942 -114.36,101.104L-114.36,100.302C-114.331,99.68 -114.316,99.014 -114.316,98.297L-114.316,17.698C-114.316,16.904 -114.327,16.106 -114.349,15.308C-114.353,15.213 -114.367,14.588 -114.393,13.951C-114.396,13.83 -114.404,13.709 -114.408,13.589L-114.408,13.574C-114.418,13.332 -114.433,13.102 -114.444,12.919C-114.484,12.355 -114.525,11.762 -114.624,11.158C-114.624,11.14 -114.627,11.125 -114.631,11.111C-115.048,8.885 -116.168,6.905 -118.949,5.914C-119.268,5.8 -119.656,5.698 -120.095,5.603C-120.172,5.588 -120.249,5.573 -120.325,5.559C-121.632,5.302 -123.363,5.127 -125.229,5.006C-125.361,4.999 -125.493,4.988 -125.628,4.981C-125.775,4.969 -125.921,4.959 -126.067,4.951C-126.163,4.947 -126.258,4.944 -126.353,4.937C-126.543,4.925 -126.737,4.919 -126.928,4.907C-129.738,4.754 -133.134,4.677 -137.116,4.673L-137.336,4.673L-137.336,2.305L-89.448,-1.936L-89.448,31.803C-89.353,31.375 -89.21,30.753 -89.027,30.009C-88.592,28.238 -86.857,21.79 -84.27,16.468C-82.681,13.2 -79.146,6.587 -74.022,2.927C-67.211,-1.929 -59.947,-2.108 -56.371,-2.196C-54.157,-2.251 -39.829,-2.39 -29.911,7.883C-24.44,13.545 -21.706,20.264 -21.706,28.037L-21.706,98.315C-21.706,98.761 -21.703,99.186 -21.695,99.589L-21.695,100.072C-21.695,100.675 -21.662,101.236 -21.6,101.748C-21.187,105.1 -19.474,106.59 -16.974,107.186C-14.09,107.874 -7.927,108.35 -7.927,108.35C-7.927,108.35 -7.931,108.35 -7.935,108.354C-5.19,108.555 -2.547,108.654 0,108.654" style="fill:rgb(22,22,24);fill-rule:nonzero;"/>
                </g>
                <g transform="matrix(1.82032,0,0,1.82032,1372.752088,589.029777)">
                    <path d="M0,2.159C-0.062,1.647 -0.095,1.087 -0.095,0.483L-0.095,0C-0.077,0.794 -0.044,1.515 0,2.159" style="fill:rgb(22,22,24);fill-rule:nonzero;"/>
                </g>
                <g transform="matrix(1.82032,0,0,1.82032,272.728757,306.498833)">
                    <path d="M0,163.056C-0.004,163.056 -4.348,162.704 -5.687,162.459C-5.698,162.456 -5.706,162.456 -5.713,162.456C-7.232,162.247 -8.619,162.016 -9.878,161.757C-9.893,161.753 -9.907,161.749 -9.922,161.749C-10.218,161.691 -10.511,161.629 -10.804,161.559C-10.818,161.556 -10.829,161.552 -10.84,161.548C-14.12,160.728 -17.095,158.642 -17.095,150.774L-17.106,150.774C-17.117,150.232 -17.121,149.665 -17.121,149.072L-17.121,13.456C-17.121,12.183 -17.087,11.023 -17.025,9.98C-16.436,3.949 -12.725,1.822 -10.577,1.09C-10.116,0.936 -9.728,0.841 -9.457,0.79C-9.45,0.79 -9.438,0.786 -9.431,0.786C-9.212,0.735 -8.985,0.681 -8.747,0.629C-6.112,-0.158 -0.97,-0.648 4.436,-0.956C4.67,-0.97 4.908,-0.985 5.142,-0.996C5.233,-1.003 5.325,-1.007 5.413,-1.01C5.64,-1.025 5.87,-1.036 6.104,-1.047C6.331,-1.058 6.562,-1.069 6.792,-1.08C7.59,-1.12 8.388,-1.153 9.175,-1.182C9.409,-1.194 9.64,-1.201 9.867,-1.208C9.877,-1.212 9.885,-1.212 9.892,-1.208C10.602,-1.234 11.301,-1.259 11.985,-1.281C12.304,-1.289 12.615,-1.299 12.926,-1.307L12.944,-1.307C13.889,-1.336 14.8,-1.358 15.664,-1.377C15.835,-1.38 16.004,-1.384 16.172,-1.387C16.381,-1.391 16.589,-1.395 16.791,-1.399C16.959,-1.402 17.127,-1.406 17.292,-1.409C17.402,-1.409 17.512,-1.413 17.622,-1.413C18.258,-1.424 18.858,-1.435 19.408,-1.443C19.496,-1.443 19.58,-1.443 19.664,-1.446C21.523,-1.468 22.778,-1.472 23.089,-1.472L23.089,-3.788L-85.638,-3.788L-85.638,-1.409C-84.108,-1.409 -82.608,-1.395 -81.133,-1.362C-81.045,-1.358 -80.961,-1.358 -80.873,-1.355C-80.796,-1.351 -80.719,-1.347 -80.643,-1.347C-79.435,-1.318 -78.249,-1.274 -77.078,-1.219C-76.804,-1.204 -76.525,-1.194 -76.244,-1.182C-69.389,-0.886 -60.689,-0.319 -57.352,0.724C-57.352,0.724 -56.444,0.852 -55.251,1.486C-52.975,2.689 -49.667,5.723 -49.667,13.167L-49.663,13.167L-49.663,149.336C-49.663,154.291 -49.97,157.343 -50.589,158.493C-51.207,159.641 -52.528,160.618 -54.556,161.413C-56.583,162.211 -60.334,162.873 -65.799,163.404C-71.266,163.934 -77.879,164.198 -85.638,164.198L-85.638,166.844L81.517,166.844L81.517,85.1L78.081,85.1C78.081,111.465 72.448,131.154 61.191,144.157C49.93,157.167 33.659,163.667 12.381,163.667L12.183,163.667C12.183,163.667 1.358,163.261 0,163.056" style="fill:rgb(22,22,24);fill-rule:nonzero;"/>
                </g>
                <g transform="matrix(1.82032,0,0,1.82032,612.396085,412.682462)">
                    <path d="M0,105.708C-0.007,105.705 -0.015,105.701 -0.025,105.701M-4.311,102.941C-4.322,102.927 -4.333,102.916 -4.344,102.901C-5.431,101.543 -6.229,99.747 -6.738,97.503C-6.738,97.5 -6.738,97.496 -6.741,97.492C-6.774,97.349 -6.807,97.203 -6.836,97.053C-7.367,94.59 -7.63,88.079 -7.63,77.524L-7.63,19.199C-7.63,12.516 -10.631,6.972 -16.626,2.573C-23.331,-2.353 -33.205,-4.816 -46.255,-4.816C-46.651,-4.816 -47.046,-4.813 -47.441,-4.802C-48.715,-4.772 -49.948,-4.717 -51.141,-4.637C-51.339,-4.622 -51.537,-4.611 -51.73,-4.593C-57.894,-4.136 -62.885,-3.049 -66.274,-1.98C-69.557,-0.944 -71.973,0.121 -73.634,0.97C-73.645,0.974 -73.656,0.981 -73.667,0.988C-74.908,1.618 -75.716,2.13 -76.156,2.412C-78.41,3.865 -81.265,5.706 -83.654,8.89C-83.676,8.919 -83.698,8.952 -83.717,8.981C-84.145,9.552 -84.551,10.166 -84.939,10.829C-85.799,12.304 -88.098,16.322 -87.867,21.809C-87.797,23.43 -87.622,26.687 -85.488,30.043C-83.376,33.366 -80.569,34.87 -79.999,35.166C-79.036,35.664 -75.991,37.19 -71.947,36.63C-69.974,36.359 -68.338,35.668 -67.046,34.888C-66.911,34.808 -66.772,34.724 -66.637,34.636C-66.512,34.559 -66.395,34.479 -66.278,34.394C-66.201,34.343 -66.125,34.292 -66.051,34.237C-65.963,34.171 -65.875,34.109 -65.791,34.046C-65.791,34.043 -65.788,34.043 -65.784,34.039C-65.7,33.974 -65.616,33.908 -65.535,33.842C-65.451,33.776 -65.367,33.71 -65.286,33.644C-65.037,33.446 -64.792,33.238 -64.551,33.015C-63.479,32.023 -62.622,30.917 -61.978,29.703C-60.583,27.057 -60.543,24.623 -60.54,23.488C-60.536,22.789 -60.587,21.86 -60.792,20.772C-60.799,20.714 -60.811,20.656 -60.825,20.597C-61.122,18.892 -61.824,16.743 -63.464,14.8C-63.471,14.785 -63.482,14.774 -63.497,14.76C-63.566,14.672 -63.639,14.584 -63.712,14.496C-64.422,13.654 -65.539,12.363 -67.471,11.462C-68.419,11.02 -69.44,10.734 -70.531,10.606C-71.735,10.375 -72.964,10.361 -74.143,10.646C-74.286,10.679 -74.417,10.716 -74.545,10.756C-73.133,6.814 -70.143,3.674 -65.583,1.343C-61.012,-0.996 -55.69,-2.17 -49.626,-2.17C-42.182,-2.17 -37.333,-0.926 -35.083,1.552C-32.832,4.033 -31.705,8.82 -31.705,15.905L-31.705,31.324C-31.705,38.036 -33.553,42.358 -37.238,44.301C-40.927,46.245 -48.042,47.657 -58.582,48.543C-69.122,49.429 -78.077,53.044 -85.451,59.401C-92.83,65.937 -96.519,73.975 -96.519,83.504C-96.519,93.217 -92.727,100.46 -85.144,105.225C-79.676,108.757 -73.239,110.524 -65.832,110.524C-58.424,110.524 -52.518,109.649 -48.107,107.904C-40.7,104.936 -35.145,99.168 -31.441,90.601C-30.021,98.118 -27.097,103.45 -22.661,106.594C-18.939,109.214 -13.263,110.524 -5.64,110.524C4.114,110.524 10.588,108.317 13.775,103.911C16.228,100.431 17.501,93.679 17.534,83.658L17.534,61.333L14.24,61.333L14.24,83.336C14.233,83.501 14.226,83.662 14.218,83.823C14.218,83.903 14.214,83.987 14.211,84.072C14.211,84.156 14.211,84.244 14.207,84.335L14.207,84.723C14.207,84.723 14.2,84.892 14.182,85.199L14.182,85.203C14.13,86.703 14.039,88.621 13.874,90.612C13.508,95.003 13.142,96.467 13.142,96.467C13.142,96.467 13.142,96.833 12.41,99.029C11.678,101.225 10.581,102.323 10.581,102.323C9.929,103.059 9.219,103.699 8.461,104.237C8.447,104.251 8.425,104.266 8.406,104.277C7.832,104.713 7.203,105.068 6.525,105.338C2.47,106.524 -0.025,105.701 -0.025,105.701C-1.885,105.111 -3.275,104.116 -4.311,102.941M-32.499,79.171C-32.499,87.149 -35.188,93.931 -40.564,99.508C-45.948,105.09 -51.987,107.878 -58.688,107.878C-63.098,107.878 -66.318,106.067 -68.342,102.433C-70.373,98.798 -71.387,91.841 -71.387,81.561C-71.387,71.991 -69.626,64.547 -66.095,59.233C-63.098,54.801 -59.042,51.965 -53.926,50.724C-50.047,50.197 -46.036,49.619 -41.89,48.997C-37.747,48.378 -34.614,46.651 -32.499,43.814L-32.499,79.171Z" style="fill:rgb(22,22,24);fill-rule:nonzero;"/>
                </g>
                <g transform="matrix(1.82032,0,0,1.82032,1905.242811,412.682462)">
                    <path d="M0,105.708C-0.007,105.705 -0.015,105.701 -0.026,105.701M-4.312,102.941C-4.322,102.927 -4.333,102.916 -4.344,102.901C-5.431,101.543 -6.229,99.747 -6.738,97.503C-6.738,97.5 -6.738,97.496 -6.741,97.492C-6.774,97.349 -6.807,97.203 -6.836,97.053C-7.367,94.59 -7.631,88.079 -7.631,77.524L-7.631,19.199C-7.631,12.516 -10.632,6.972 -16.626,2.573C-23.331,-2.353 -33.205,-4.816 -46.256,-4.816C-46.651,-4.816 -47.046,-4.813 -47.441,-4.802C-48.715,-4.772 -49.948,-4.717 -51.142,-4.637C-51.339,-4.622 -51.537,-4.611 -51.73,-4.593C-57.894,-4.136 -62.886,-3.049 -66.274,-1.98C-69.557,-0.944 -71.973,0.121 -73.634,0.97C-73.645,0.974 -73.656,0.981 -73.667,0.988C-74.908,1.618 -75.717,2.13 -76.156,2.412C-78.41,3.865 -81.265,5.706 -83.655,8.89C-83.677,8.919 -83.699,8.952 -83.717,8.981C-84.145,9.552 -84.551,10.166 -84.939,10.829C-85.799,12.304 -88.098,16.322 -87.867,21.809C-87.797,23.43 -87.622,26.687 -85.488,30.043C-83.376,33.366 -80.569,34.87 -79.999,35.166C-79.036,35.664 -75.991,37.19 -71.947,36.63C-69.975,36.359 -68.338,35.668 -67.047,34.888C-66.911,34.808 -66.772,34.724 -66.637,34.636C-66.512,34.559 -66.396,34.479 -66.278,34.394C-66.201,34.343 -66.125,34.292 -66.051,34.237C-65.963,34.171 -65.875,34.109 -65.792,34.046C-65.792,34.043 -65.788,34.043 -65.784,34.039C-65.7,33.974 -65.616,33.908 -65.535,33.842C-65.451,33.776 -65.367,33.71 -65.287,33.644C-65.038,33.446 -64.792,33.238 -64.551,33.015C-63.479,32.023 -62.622,30.917 -61.978,29.703C-60.583,27.057 -60.543,24.623 -60.54,23.488C-60.536,22.789 -60.587,21.86 -60.792,20.772C-60.799,20.714 -60.811,20.656 -60.825,20.597C-61.122,18.892 -61.824,16.743 -63.464,14.8C-63.471,14.785 -63.482,14.774 -63.497,14.76C-63.566,14.672 -63.64,14.584 -63.713,14.496C-64.423,13.654 -65.539,12.363 -67.471,11.462C-68.419,11.02 -69.44,10.734 -70.531,10.606C-71.735,10.375 -72.964,10.361 -74.143,10.646C-74.286,10.679 -74.417,10.716 -74.545,10.756C-73.133,6.814 -70.143,3.674 -65.583,1.343C-61.012,-0.996 -55.69,-2.17 -49.626,-2.17C-42.183,-2.17 -37.333,-0.926 -35.083,1.552C-32.832,4.033 -31.705,8.82 -31.705,15.905L-31.705,31.324C-31.705,38.036 -33.553,42.358 -37.238,44.301C-40.927,46.245 -48.042,47.657 -58.582,48.543C-69.122,49.429 -78.077,53.044 -85.452,59.401C-92.83,65.937 -96.519,73.975 -96.519,83.504C-96.519,93.217 -92.727,100.46 -85.144,105.225C-79.677,108.757 -73.239,110.524 -65.832,110.524C-58.424,110.524 -52.518,109.649 -48.107,107.904C-40.7,104.936 -35.145,99.168 -31.441,90.601C-30.021,98.118 -27.097,103.45 -22.661,106.594C-18.939,109.214 -13.263,110.524 -5.64,110.524C4.113,110.524 10.587,108.317 13.775,103.911C16.227,100.431 17.501,93.679 17.534,83.658L17.534,61.333L14.24,61.333L14.24,83.336C14.232,83.501 14.225,83.662 14.218,83.823C14.218,83.903 14.214,83.987 14.21,84.072C14.21,84.156 14.21,84.244 14.207,84.335L14.207,84.723C14.207,84.723 14.2,84.892 14.181,85.199L14.181,85.203C14.13,86.703 14.039,88.621 13.874,90.612C13.508,95.003 13.142,96.467 13.142,96.467C13.142,96.467 13.142,96.833 12.41,99.029C11.678,101.225 10.58,102.323 10.58,102.323C9.929,103.059 9.219,103.699 8.461,104.237C8.447,104.251 8.425,104.266 8.406,104.277C7.832,104.713 7.202,105.068 6.525,105.338C2.47,106.524 -0.026,105.701 -0.026,105.701C-1.885,105.111 -3.275,104.116 -4.312,102.941M-32.499,79.171C-32.499,87.149 -35.188,93.931 -40.565,99.508C-45.948,105.09 -51.987,107.878 -58.688,107.878C-63.098,107.878 -66.318,106.067 -68.342,102.433C-70.374,98.798 -71.387,91.841 -71.387,81.561C-71.387,71.991 -69.627,64.547 -66.095,59.233C-63.098,54.801 -59.043,51.965 -53.927,50.724C-50.047,50.197 -46.036,49.619 -41.89,48.997C-37.747,48.378 -34.614,46.651 -32.499,43.814L-32.499,79.171Z" style="fill:rgb(22,22,24);fill-rule:nonzero;"/>
                </g>
                <g transform="matrix(1.82032,0,0,1.82032,759.517617,710.438744)">
                    <path d="M0,34.586C-2.533,34.586 -4.929,34.156 -7.186,33.295C-9.443,32.435 -11.188,31.322 -12.422,29.959L-11.302,28.107C-10.132,29.309 -8.533,30.324 -6.503,31.152C-4.474,31.98 -2.322,32.394 -0.049,32.394C2.224,32.394 4.083,32.094 5.529,31.493C6.974,30.892 8.045,30.088 8.744,29.082C9.442,28.075 9.791,26.955 9.791,25.72C9.791,24.259 9.402,23.09 8.622,22.213C7.843,21.336 6.82,20.638 5.553,20.118C4.287,19.599 2.906,19.161 1.413,18.803C-0.082,18.446 -1.592,18.065 -3.118,17.658C-4.645,17.253 -6.041,16.725 -7.307,16.075C-8.573,15.426 -9.589,14.541 -10.352,13.42C-11.115,12.3 -11.497,10.847 -11.497,9.06C-11.497,7.437 -11.075,5.942 -10.23,4.579C-9.386,3.215 -8.07,2.111 -6.284,1.266C-4.499,0.422 -2.209,0 0.584,0C2.468,0 4.327,0.276 6.162,0.828C7.997,1.38 9.563,2.127 10.863,3.068L9.938,5.066C8.508,4.091 6.974,3.369 5.334,2.898C3.694,2.428 2.11,2.192 0.584,2.192C-1.592,2.192 -3.394,2.501 -4.823,3.117C-6.252,3.735 -7.307,4.554 -7.989,5.577C-8.671,6.601 -9.012,7.745 -9.012,9.012C-9.012,10.473 -8.631,11.642 -7.867,12.519C-7.104,13.396 -6.089,14.094 -4.823,14.614C-3.556,15.133 -2.16,15.572 -0.633,15.929C0.893,16.287 2.403,16.668 3.897,17.074C5.391,17.48 6.771,18.008 8.038,18.657C9.304,19.307 10.327,20.184 11.106,21.287C11.886,22.392 12.275,23.82 12.275,25.574C12.275,27.166 11.837,28.651 10.96,30.031C10.083,31.412 8.744,32.516 6.942,33.344C5.139,34.172 2.825,34.586 0,34.586" style="fill:rgb(22,22,24);fill-rule:nonzero;"/>
                </g>
                <g transform="matrix(1.82032,0,0,1.82032,856.969718,710.88181)">
                    <path d="M0,34.099L0,2.241L-12.275,2.241L-12.275,0L14.76,0L14.76,2.241L2.484,2.241L2.484,34.099L0,34.099Z" style="fill:rgb(22,22,24);fill-rule:nonzero;"/>
                </g>
                <g transform="matrix(1.82032,0,0,1.82032,966.746113,710.881082)">
                    <path d="M0,34.343C-4.222,34.343 -7.55,33.109 -9.986,30.641C-12.422,28.173 -13.639,24.503 -13.639,19.632L-13.639,0L-11.155,0L-11.155,19.534C-11.155,23.789 -10.181,26.939 -8.232,28.985C-6.284,31.03 -3.524,32.053 0.049,32.053C3.588,32.053 6.333,31.03 8.281,28.985C10.23,26.939 11.204,23.789 11.204,19.534L11.204,0L13.688,0L13.688,19.632C13.688,24.503 12.471,28.173 10.035,30.641C7.599,33.109 4.254,34.343 0,34.343" style="fill:rgb(22,22,24);fill-rule:nonzero;"/>
                </g>
                <g transform="matrix(1.82032,0,0,1.82032,1066.06113,714.961693)">
                    <path d="M0,29.617L10.814,29.617C14.029,29.617 16.822,28.984 19.192,27.717C21.563,26.45 23.398,24.705 24.697,22.481C25.996,20.257 26.646,17.699 26.646,14.808C26.646,11.918 25.996,9.361 24.697,7.136C23.398,4.912 21.563,3.166 19.192,1.899C16.822,0.633 14.029,-0.001 10.814,-0.001L0,-0.001L0,29.617ZM-2.485,31.858L-2.485,-2.241L11.009,-2.241C14.614,-2.241 17.78,-1.511 20.508,-0.049C23.236,1.412 25.355,3.426 26.865,5.991C28.375,8.557 29.13,11.496 29.13,14.808C29.13,18.121 28.375,21.06 26.865,23.625C25.355,26.191 23.236,28.204 20.508,29.666C17.78,31.127 14.614,31.858 11.009,31.858L-2.485,31.858Z" style="fill:rgb(22,22,24);fill-rule:nonzero;"/>
                </g>
                <g transform="matrix(1.82032,0,0,1.82032,-842.468761,-29.26846)">
                    <rect x="1113.002" y="406.604" width="2.484" height="34.099" style="fill:rgb(22,22,24);"/>
                </g>
                <g transform="matrix(1.82032,0,0,1.82032,1284.816802,714.606367)">
                    <path d="M0,30.007C2.175,30.007 4.189,29.634 6.041,28.886C7.891,28.14 9.499,27.084 10.863,25.72C12.227,24.356 13.291,22.765 14.054,20.946C14.816,19.128 15.199,17.147 15.199,15.004C15.199,12.828 14.816,10.839 14.054,9.036C13.291,7.234 12.227,5.651 10.863,4.287C9.499,2.923 7.891,1.868 6.041,1.12C4.189,0.373 2.175,0 0,0C-2.176,0 -4.189,0.373 -6.041,1.12C-7.892,1.868 -9.507,2.923 -10.887,4.287C-12.268,5.651 -13.34,7.234 -14.103,9.036C-14.866,10.839 -15.247,12.828 -15.247,15.004C-15.247,17.147 -14.866,19.128 -14.103,20.946C-13.34,22.765 -12.268,24.356 -10.887,25.72C-9.507,27.084 -7.892,28.14 -6.041,28.886C-4.189,29.634 -2.176,30.007 0,30.007M0,32.297C-2.533,32.297 -4.879,31.866 -7.039,31.006C-9.199,30.146 -11.083,28.928 -12.69,27.352C-14.297,25.778 -15.54,23.943 -16.417,21.848C-17.293,19.753 -17.732,17.472 -17.732,15.004C-17.732,12.536 -17.293,10.254 -16.417,8.159C-15.54,6.065 -14.297,4.23 -12.69,2.654C-11.083,1.08 -9.199,-0.138 -7.039,-0.999C-4.879,-1.859 -2.533,-2.29 0,-2.29C2.533,-2.29 4.879,-1.859 7.039,-0.999C9.198,-0.138 11.074,1.071 12.666,2.63C14.256,4.189 15.498,6.016 16.392,8.111C17.285,10.205 17.731,12.503 17.731,15.004C17.731,17.505 17.285,19.801 16.392,21.896C15.498,23.991 14.256,25.818 12.666,27.377C11.074,28.935 9.198,30.146 7.039,31.006C4.879,31.866 2.533,32.297 0,32.297" style="fill:rgb(22,22,24);fill-rule:nonzero;"/>
                </g>
            </g>
        </g>
    </g>
</svg>
