<?xml version="1.0" encoding="UTF-8" standalone="no"?>
<!DOCTYPE svg PUBLIC "-//W3C//DTD SVG 1.1//EN" "http://www.w3.org/Graphics/SVG/1.1/DTD/svg11.dtd">
<svg width="100%" height="100%" viewBox="0 0 1920 573" version="1.1" xmlns="http://www.w3.org/2000/svg" xmlns:xlink="http://www.w3.org/1999/xlink" xml:space="preserve" xmlns:serif="http://www.serif.com/" style="fill-rule:evenodd;clip-rule:evenodd;stroke-linejoin:round;stroke-miterlimit:2;">
    <rect id="Artboard1" x="0" y="0" width="1920" height="572.068" style="fill:none;"/>
    <g id="Artboard11" serif:id="Artboard1">
        <g transform="matrix(1.11924,0,0,1.11924,-209.612976,-69.206661)">
            <g transform="matrix(2.518739,0,0,2.518739,-466.252871,-816.058817)">
                <path d="M716.73,537.31C714.939,537.315 713.16,537.014 711.47,536.42C710.012,535.954 708.679,535.164 707.57,534.11L708.57,532.11C709.579,533.051 710.77,533.776 712.07,534.24C713.545,534.818 715.116,535.11 716.7,535.1C717.985,535.145 719.267,534.948 720.48,534.52C721.337,534.228 722.086,533.684 722.63,532.96C723.083,532.32 723.325,531.554 723.32,530.77C723.357,529.918 723.059,529.085 722.49,528.45C721.887,527.827 721.147,527.351 720.33,527.06C719.35,526.697 718.348,526.396 717.33,526.16C716.25,525.9 715.17,525.63 714.09,525.33C713.046,525.06 712.039,524.663 711.09,524.15C710.217,523.685 709.469,523.016 708.91,522.2C708.318,521.245 708.029,520.133 708.08,519.01C708.084,517.817 708.431,516.651 709.08,515.65C709.821,514.555 710.863,513.697 712.08,513.18C713.707,512.505 715.46,512.187 717.22,512.25C718.613,512.255 720,512.45 721.34,512.83C722.594,513.169 723.784,513.713 724.86,514.44L724,516.5C722.968,515.811 721.834,515.288 720.64,514.95C719.521,514.631 718.364,514.466 717.2,514.46C715.953,514.42 714.709,514.624 713.54,515.06C712.69,515.375 711.949,515.931 711.41,516.66C710.951,517.327 710.71,518.12 710.72,518.93C710.681,519.785 710.979,520.622 711.55,521.26C712.161,521.879 712.907,522.348 713.73,522.63C714.713,522.979 715.714,523.273 716.73,523.51C717.81,523.77 718.88,524.05 719.95,524.36C720.989,524.641 721.995,525.033 722.95,525.53C723.817,525.99 724.564,526.648 725.13,527.45C725.719,528.388 726.009,529.483 725.96,530.59C725.961,531.771 725.613,532.926 724.96,533.91C724.223,535.009 723.18,535.868 721.96,536.38C720.304,537.061 718.52,537.379 716.73,537.31Z" style="fill:rgb(23,23,23);fill-rule:nonzero;"/>
            </g>
            <g transform="matrix(2.518739,0,0,2.518739,-466.252871,-816.058817)">
                <path d="M746.12,537.1L746.12,514.71L737.45,514.71L737.45,512.45L757.38,512.45L757.38,514.71L748.72,514.71L748.72,537.1L746.12,537.1Z" style="fill:rgb(23,23,23);fill-rule:nonzero;"/>
            </g>
            <g transform="matrix(2.518739,0,0,2.518739,-466.252871,-816.058817)">
                <path d="M781.07,537.31C778.327,537.466 775.638,536.485 773.64,534.6C771.83,532.79 770.93,530.12 770.93,526.6L770.93,512.45L773.53,512.45L773.53,526.45C773.53,529.363 774.197,531.51 775.53,532.89C778.723,535.65 783.507,535.65 786.7,532.89C788.033,531.51 788.7,529.363 788.7,526.45L788.7,512.45L791.23,512.45L791.23,526.57C791.23,530.12 790.34,532.79 788.54,534.57C786.537,536.476 783.831,537.469 781.07,537.31Z" style="fill:rgb(23,23,23);fill-rule:nonzero;"/>
            </g>
            <g transform="matrix(2.518739,0,0,2.518739,-466.252871,-816.058817)">
                <path d="M809.12,537.1L809.12,512.45L819.12,512.45C821.52,512.4 823.897,512.939 826.04,514.02C827.963,515.004 829.568,516.512 830.67,518.37C832.88,522.353 832.88,527.207 830.67,531.19C829.566,533.046 827.961,534.554 826.04,535.54C823.896,536.618 821.519,537.154 819.12,537.1L809.12,537.1ZM811.72,534.85L819,534.85C820.974,534.899 822.93,534.456 824.69,533.56C826.25,532.754 827.55,531.523 828.44,530.01C830.224,526.748 830.224,522.792 828.44,519.53C827.545,518.029 826.25,516.807 824.7,516C822.938,515.112 820.983,514.672 819.01,514.72L811.72,514.72L811.72,534.85Z" style="fill:rgb(23,23,23);fill-rule:nonzero;"/>
            </g>
            <g transform="matrix(2.518739,0,0,2.518739,-466.252871,-816.058817)">
                <rect x="848.29" y="512.45" width="2.61" height="24.65" style="fill:rgb(23,23,23);fill-rule:nonzero;"/>
            </g>
            <g transform="matrix(2.518739,0,0,2.518739,-466.252871,-816.058817)">
                <path d="M879.79,537.31C878.03,537.326 876.283,537.011 874.64,536.38C873.1,535.792 871.697,534.894 870.52,533.74C869.357,532.601 868.432,531.241 867.8,529.74C866.51,526.533 866.51,522.947 867.8,519.74C868.429,518.238 869.354,516.878 870.52,515.74C871.696,514.592 873.09,513.691 874.62,513.09C877.944,511.85 881.606,511.85 884.93,513.09C886.453,513.714 887.837,514.635 889,515.8C890.165,516.936 891.087,518.297 891.71,519.8C893.003,523.007 893.003,526.593 891.71,529.8C891.083,531.301 890.161,532.661 889,533.8C887.818,534.938 886.42,535.828 884.89,536.42C883.261,537.034 881.531,537.336 879.79,537.31ZM879.79,534.99C881.196,535.005 882.592,534.747 883.9,534.23C885.126,533.744 886.238,533.013 887.17,532.08C888.102,531.155 888.839,530.054 889.34,528.84C890.366,526.228 890.366,523.322 889.34,520.71C888.834,519.499 888.097,518.398 887.17,517.47C886.236,516.541 885.124,515.809 883.9,515.32C882.591,514.81 881.195,514.555 879.79,514.57C878.382,514.558 876.984,514.813 875.67,515.32C874.439,515.807 873.32,516.538 872.38,517.47C869.47,520.483 868.612,524.953 870.2,528.83C870.708,530.045 871.448,531.149 872.38,532.08C873.317,533.015 874.437,533.747 875.67,534.23C876.981,534.748 878.38,535.01 879.79,535L879.79,534.99Z" style="fill:rgb(23,23,23);fill-rule:nonzero;"/>
            </g>
            <g transform="matrix(2.518739,0,0,2.518739,-466.252871,-816.058817)">
                <path d="M397.27,470.72C398.792,473.015 400.975,474.794 403.53,475.82C406.455,476.998 409.587,477.576 412.74,477.52C416.861,477.583 420.938,476.661 424.63,474.83C428.07,473.11 430.975,470.481 433.03,467.23C435.149,463.83 436.237,459.886 436.16,455.88L439,466.61C439.166,471.407 437.466,476.087 434.26,479.66C431.075,483.136 427.084,485.777 422.64,487.35C418.262,488.98 413.631,489.826 408.96,489.85C404.117,489.88 399.329,488.809 394.96,486.72C390.714,484.736 387.095,481.622 384.5,477.72C381.786,473.456 380.416,468.472 380.57,463.42C380.57,455.42 383.4,449.013 389.06,444.2C394.72,439.387 402.62,436.973 412.76,436.96C417.808,436.828 422.843,437.517 427.67,439C431.063,440.084 434.283,441.65 437.23,443.65C439.01,444.841 440.633,446.253 442.06,447.85L442.06,456.26C438.134,453.517 433.787,451.433 429.19,450.09C424.59,448.813 419.834,448.181 415.06,448.21C411.197,448.08 407.345,448.688 403.71,450C401.075,450.962 398.796,452.707 397.18,455C395.708,457.286 394.959,459.962 395.03,462.68C394.959,465.523 395.74,468.323 397.27,470.72ZM385.91,414.22C389.902,411.476 394.193,409.195 398.7,407.42C404.12,405.16 410.647,404.03 418.28,404.03C424.054,403.925 429.795,404.944 435.18,407.03C439.662,408.735 443.567,411.68 446.44,415.52C449.198,419.502 450.601,424.269 450.44,429.11L450.44,488.11L436.14,488.11L436.14,431C436.228,428.564 435.738,426.141 434.71,423.93C433.796,422.136 432.414,420.623 430.71,419.55C428.859,418.435 426.829,417.65 424.71,417.23C422.355,416.741 419.955,416.5 417.55,416.51C413.834,416.465 410.131,416.947 406.55,417.94C403.652,418.741 400.859,419.882 398.23,421.34C395.97,422.65 394.18,423.79 392.87,424.74L385.91,414.22Z" style="fill:rgb(23,23,23);fill-rule:nonzero;"/>
            </g>
            <g transform="matrix(2.518739,0,0,2.518739,-466.252871,-816.058817)">
                <path d="M468,405.81L491.24,463.93L514.48,405.81L530.58,405.81L491.24,494.32L451.9,405.81L468,405.81Z" style="fill:rgb(23,23,23);fill-rule:nonzero;"/>
            </g>
            <g transform="matrix(2.518739,0,0,2.518739,-466.252871,-816.058817)">
                <path d="M540.85,366.51C542.671,364.779 545.09,363.812 547.602,363.812C552.979,363.812 557.402,368.236 557.402,373.612C557.402,376.127 556.434,378.548 554.7,380.37C552.89,382.255 550.388,383.321 547.775,383.321C545.162,383.321 542.66,382.255 540.85,380.37C538.965,378.559 537.898,376.054 537.898,373.44C537.898,370.826 538.965,368.321 540.85,366.51ZM554.85,405.81L554.85,488.07L540.55,488.07L540.55,405.81L554.85,405.81Z" style="fill:rgb(23,23,23);fill-rule:nonzero;"/>
            </g>
            <g transform="matrix(2.518739,0,0,2.518739,-466.252871,-816.058817)">
                <path d="M584.58,484.4C578.668,480.75 573.897,475.514 570.81,469.29C567.414,462.338 565.727,454.675 565.89,446.94C565.89,438.36 567.59,430.85 570.99,424.41C574.226,418.148 579.189,412.941 585.29,409.41C591.797,405.72 599.181,403.851 606.66,404C614.76,404 621.703,405.697 627.49,409.09C633.287,412.508 637.928,417.588 640.81,423.67C643.91,429.977 645.46,437.483 645.46,446.19C645.46,447.03 645.46,447.89 645.37,448.79C645.28,449.69 645.28,450.25 645.28,450.49L575,450.49L575,438.36L634,438.36L628.27,446.58C629.204,444.744 629.752,442.736 629.88,440.68C630.014,436.277 629.022,431.913 627,428C625.114,424.504 622.301,421.593 618.87,419.59C615.16,417.517 610.959,416.481 606.71,416.59C601.812,416.449 596.968,417.656 592.71,420.08C588.799,422.446 585.685,425.93 583.77,430.08C581.541,435.117 580.412,440.572 580.46,446.08C580.298,451.713 581.32,457.317 583.46,462.53C585.293,466.829 588.418,470.454 592.4,472.9C596.749,475.387 601.702,476.623 606.71,476.47C611.892,476.575 617.011,475.312 621.55,472.81C626.103,470.104 629.866,466.248 632.46,461.63L644,468.93C640.084,475.483 634.5,480.884 627.82,484.58C621.32,488.087 613.653,489.843 604.82,489.85C597.695,489.976 590.678,488.086 584.58,484.4Z" style="fill:rgb(23,23,23);fill-rule:nonzero;"/>
            </g>
            <g transform="matrix(2.518739,0,0,2.518739,-466.252871,-816.058817)">
                <path d="M703.53,422.62C700.55,419.173 696.197,417.447 690.47,417.44C686.643,417.353 682.856,418.244 679.47,420.03C676.38,421.686 673.834,424.201 672.14,427.27C670.361,430.562 669.465,434.259 669.54,438L669.54,488.07L655.24,488.07L655.24,405.81L669.54,405.81L669.54,418.69C674.069,409.387 683.71,403.609 694.05,404C702.75,404 709.633,406.89 714.7,412.67C719.767,418.45 722.3,426.287 722.3,436.18L722.3,488.04L708,488.04L708,438C708,431.2 706.51,426.073 703.53,422.62Z" style="fill:rgb(23,23,23);fill-rule:nonzero;"/>
            </g>
            <g transform="matrix(2.518739,0,0,2.518739,-466.252871,-816.058817)">
                <path d="M768.67,405.81L768.67,419.22L727.55,419.22L727.55,405.81L768.67,405.81ZM755.26,377.21L755.26,488.07L741,488.07L741,377.21L755.26,377.21Z" style="fill:rgb(23,23,23);fill-rule:nonzero;"/>
            </g>
            <g transform="matrix(2.518739,0,0,2.518739,-466.252871,-816.058817)">
                <path d="M791.52,488.07L777.21,488.07L777.21,405.81L791.52,405.81L791.52,488.07ZM811.19,418.42C809.308,417.703 807.303,417.364 805.29,417.42C801.71,417.42 798.907,418.313 796.88,420.1C794.756,422.05 793.288,424.611 792.68,427.43C791.862,430.892 791.472,434.442 791.52,438L785.08,438C784.964,432.006 786.155,426.057 788.57,420.57C790.584,415.898 793.667,411.764 797.57,408.5C801.257,405.52 805.01,404.03 808.83,404.03C811.645,404.004 814.449,404.395 817.15,405.19C819.861,406.067 822.296,407.64 824.21,409.75L816.34,421.55C814.75,420.311 813.022,419.26 811.19,418.42Z" style="fill:rgb(23,23,23);fill-rule:nonzero;"/>
            </g>
            <g transform="matrix(2.518739,0,0,2.518739,-466.252871,-816.058817)">
                <path d="M839.8,470.72C841.322,473.015 843.505,474.794 846.06,475.82C848.985,476.997 852.117,477.575 855.27,477.52C859.391,477.584 863.468,476.662 867.16,474.83C870.605,473.113 873.514,470.484 875.57,467.23C877.689,463.83 878.777,459.886 878.7,455.88L881.56,466.61C881.721,471.407 880.022,476.085 876.82,479.66C873.633,483.134 869.643,485.775 865.2,487.35C860.822,488.98 856.191,489.826 851.52,489.85C846.677,489.88 841.889,488.809 837.52,486.72C833.274,484.736 829.655,481.622 827.06,477.72C824.346,473.456 822.976,468.472 823.13,463.42C823.13,455.42 825.96,449.013 831.62,444.2C837.28,439.387 845.177,436.973 855.31,436.96C860.351,436.829 865.38,437.518 870.2,439C873.595,440.086 876.818,441.652 879.77,443.65C881.548,444.844 883.17,446.255 884.6,447.85L884.6,456.26C880.671,453.517 876.32,451.433 871.72,450.09C867.123,448.813 862.371,448.181 857.6,448.21C853.734,448.081 849.879,448.688 846.24,450C843.609,450.965 841.334,452.709 839.72,455C838.248,457.286 837.499,459.962 837.57,462.68C837.496,465.522 838.273,468.322 839.8,470.72ZM828.45,414.22C832.442,411.476 836.733,409.195 841.24,407.42C846.66,405.16 853.187,404.03 860.82,404.03C866.591,403.925 872.328,404.944 877.71,407.03C882.197,408.716 886.113,411.644 889,415.47C891.758,419.452 893.161,424.219 893,429.06L893,488.06L878.7,488.06L878.7,431C878.788,428.564 878.298,426.141 877.27,423.93C876.358,422.135 874.975,420.621 873.27,419.55C871.42,418.434 869.39,417.649 867.27,417.23C864.918,416.741 862.522,416.5 860.12,416.51C856.404,416.467 852.701,416.948 849.12,417.94C846.225,418.739 843.435,419.881 840.81,421.34C838.54,422.65 836.81,423.79 835.44,424.74L828.45,414.22Z" style="fill:rgb(23,23,23);fill-rule:nonzero;"/>
            </g>
            <g transform="matrix(2.518739,0,0,2.518739,-466.252871,-816.058817)">
                <path d="M381.43,487.82L307,487.82L307,362.69L321.9,362.69L321.9,472.93L375.41,472.93L381.43,487.82Z" style="fill:rgb(23,23,23);fill-rule:nonzero;"/>
            </g>
        </g>
    </g>
</svg>
