<svg id="Layer_1" data-name="Layer 1" xmlns="http://www.w3.org/2000/svg" viewBox="0 0 3000 2000"><defs><style>.cls-1{fill:#fff;}.cls-2{fill:none;stroke:#010101;stroke-linecap:round;stroke-linejoin:round;stroke-width:0.8px;}.cls-3,.cls-4,.cls-5,.cls-8{fill:#010101;}.cls-3{fill-rule:evenodd;}.cls-5,.cls-8{font-size:52.67px;font-family:Inter18pt-Medium, Inter 18pt;}.cls-5,.cls-9{letter-spacing:0em;}.cls-6{letter-spacing:0.01em;}.cls-7{letter-spacing:0em;}.cls-10{letter-spacing:0em;}.cls-11{letter-spacing:0.01em;}.cls-12{letter-spacing:-0.01em;}.cls-13{letter-spacing:0.01em;}.cls-14{letter-spacing:0em;}.cls-15{letter-spacing:-0.01em;}.cls-16{letter-spacing:0em;}.cls-17{letter-spacing:0.01em;}.cls-18{letter-spacing:0.01em;}.cls-19{letter-spacing:0em;}.cls-20{letter-spacing:0em;}.cls-21{letter-spacing:0em;}.cls-22{letter-spacing:0em;}</style></defs><title>VUTVE</title><rect class="cls-1" width="3000" height="2000"/><line class="cls-2" x1="2519.78" y1="858.9" x2="2505.3" y2="815.8"/><line class="cls-2" x1="2505.3" y1="815.8" x2="2488.96" y2="773.33"/><line class="cls-2" x1="2488.96" y1="773.33" x2="2470.78" y2="731.49"/><line class="cls-2" x1="2470.78" y1="731.49" x2="2450.78" y2="690.74"/><line class="cls-2" x1="2450.78" y1="690.74" x2="2429.4" y2="650.59"/><line class="cls-2" x1="2429.4" y1="650.59" x2="2406.17" y2="611.07"/><line class="cls-2" x1="2406.17" y1="611.07" x2="2381.16" y2="573.12"/><line class="cls-2" x1="2381.16" y1="573.12" x2="2354.8" y2="536.23"/><line class="cls-2" x1="2354.8" y1="536.23" x2="2326.6" y2="499.97"/><line class="cls-2" x1="2326.6" y1="499.97" x2="2297.09" y2="465.24"/><line class="cls-2" x1="2297.09" y1="465.24" x2="2266.28" y2="432.05"/><line class="cls-2" x1="2266.28" y1="432.05" x2="2233.66" y2="399.96"/><line class="cls-2" x1="2233.66" y1="399.96" x2="2200.17" y2="368.89"/><line class="cls-2" x1="2200.17" y1="368.89" x2="2165.41" y2="339.84"/><line class="cls-2" x1="2165.41" y1="339.84" x2="2129.31" y2="311.84"/><line class="cls-2" x1="2129.31" y1="311.84" x2="2091.95" y2="285.85"/><line class="cls-2" x1="2091.95" y1="285.85" x2="2053.75" y2="261.36"/><line class="cls-2" x1="2053.75" y1="261.36" x2="2014.22" y2="237.93"/><line class="cls-2" x1="2014.22" y1="237.93" x2="1973.93" y2="216.94"/><line class="cls-2" x1="1973.93" y1="216.94" x2="1932.78" y2="196.98"/><line class="cls-2" x1="1932.78" y1="196.98" x2="1890.87" y2="179.46"/><line class="cls-2" x1="1890.87" y1="179.46" x2="1848.13" y2="163.43"/><line class="cls-2" x1="1848.13" y1="163.43" x2="1805.04" y2="148.86"/><line class="cls-2" x1="1805.04" y1="148.86" x2="1761.19" y2="136.74"/><line class="cls-2" x1="1761.19" y1="136.74" x2="1716.99" y2="126.07"/><line class="cls-2" x1="1716.99" y1="126.07" x2="1671.99" y2="117.37"/><line class="cls-2" x1="1671.99" y1="117.37" x2="1627.15" y2="110.57"/><line class="cls-2" x1="2562.86" y1="960.6" x2="2552.56" y2="916.21"/><line class="cls-2" x1="2552.56" y1="916.21" x2="2540.45" y2="872.92"/><line class="cls-2" x1="2540.45" y1="872.92" x2="2526.91" y2="829.74"/><line class="cls-2" x1="2526.91" y1="829.74" x2="2511.53" y2="787.2"/><line class="cls-2" x1="2511.53" y1="787.2" x2="2494.29" y2="745.28"/><line class="cls-2" x1="2494.29" y1="745.28" x2="2475.19" y2="703.98"/><line class="cls-2" x1="2475.19" y1="703.98" x2="2454.76" y2="663.75"/><line class="cls-2" x1="2454.76" y1="663.75" x2="2432.47" y2="624.15"/><line class="cls-2" x1="2432.47" y1="624.15" x2="2408.37" y2="585.65"/><line class="cls-2" x1="2408.37" y1="585.65" x2="2382.93" y2="548.21"/><line class="cls-2" x1="2382.93" y1="548.21" x2="2356.14" y2="511.83"/><line class="cls-2" x1="2356.14" y1="511.83" x2="2327.58" y2="477.03"/><line class="cls-2" x1="2327.58" y1="477.03" x2="2298.11" y2="442.78"/><line class="cls-2" x1="2298.11" y1="442.78" x2="2266.87" y2="410.1"/><line class="cls-2" x1="2266.87" y1="410.1" x2="2234.28" y2="378.48"/><line class="cls-2" x1="2234.28" y1="378.48" x2="2200.39" y2="348.4"/><line class="cls-2" x1="2200.39" y1="348.4" x2="2165.2" y2="319.85"/><line class="cls-2" x1="2165.2" y1="319.85" x2="2129.14" y2="292.33"/><line class="cls-2" x1="2129.14" y1="292.33" x2="2091.82" y2="266.81"/><line class="cls-2" x1="2091.82" y1="266.81" x2="2053.66" y2="242.8"/><line class="cls-2" x1="2053.66" y1="242.8" x2="2014.21" y2="220.31"/><line class="cls-2" x1="2014.21" y1="220.31" x2="1973.92" y2="199.33"/><line class="cls-2" x1="1973.92" y1="199.33" x2="1933.31" y2="180.27"/><line class="cls-2" x1="1933.31" y1="180.27" x2="1891.41" y2="162.75"/><line class="cls-2" x1="1891.41" y1="162.75" x2="1849.14" y2="146.68"/><line class="cls-2" x1="1849.14" y1="146.68" x2="1806.09" y2="132.59"/><line class="cls-2" x1="1806.09" y1="132.59" x2="1762.24" y2="120.46"/><line class="cls-2" x1="1762.24" y1="120.46" x2="1718.07" y2="110.27"/><line class="cls-2" x1="1718.07" y1="110.27" x2="1674.03" y2="101.49"/><line class="cls-2" x1="1674.03" y1="101.49" x2="1629.19" y2="94.69"/><line class="cls-2" x1="2477.44" y1="940.93" x2="2473.8" y2="925.51"/><line class="cls-2" x1="2473.8" y1="925.51" x2="2469.21" y2="910.18"/><line class="cls-2" x1="2469.21" y1="910.18" x2="2465.1" y2="894.8"/><line class="cls-2" x1="2396.74" y1="722.79" x2="2377.6" y2="686.73"/><line class="cls-2" x1="2377.6" y1="686.73" x2="2357.12" y2="651.75"/><line class="cls-2" x1="2357.12" y1="651.75" x2="2335.25" y2="617.35"/><line class="cls-2" x1="2335.25" y1="617.35" x2="2312.05" y2="584.01"/><line class="cls-2" x1="2312.05" y1="584.01" x2="2287.51" y2="551.73"/><line class="cls-2" x1="2074.83" y1="350.11" x2="2034.04" y2="322.97"/><line class="cls-2" x1="2034.04" y1="322.97" x2="1991.98" y2="297.84"/><line class="cls-2" x1="1991.98" y1="297.84" x2="1948.66" y2="274.72"/><line class="cls-2" x1="1948.66" y1="274.72" x2="1904.55" y2="253.57"/><line class="cls-2" x1="2507.53" y1="930.37" x2="2495.42" y2="887.08"/><line class="cls-2" x1="2495.42" y1="887.08" x2="2481.88" y2="843.9"/><line class="cls-2" x1="2481.88" y1="843.9" x2="2466.54" y2="801.83"/><line class="cls-2" x1="2466.54" y1="801.83" x2="2449.34" y2="760.38"/><line class="cls-2" x1="2449.34" y1="760.38" x2="2430.28" y2="719.56"/><line class="cls-2" x1="2430.28" y1="719.56" x2="2409.41" y2="679.85"/><line class="cls-2" x1="2409.41" y1="679.85" x2="2387.16" y2="640.72"/><line class="cls-2" x1="2387.16" y1="640.72" x2="2363.1" y2="602.69"/><line class="cls-2" x1="2363.1" y1="602.69" x2="2337.22" y2="565.76"/><line class="cls-2" x1="2337.22" y1="565.76" x2="2310.48" y2="529.86"/><line class="cls-2" x1="2310.48" y1="529.86" x2="2281.48" y2="495.56"/><line class="cls-2" x1="2281.48" y1="495.56" x2="2251.58" y2="461.82"/><line class="cls-2" x1="2251.58" y1="461.82" x2="2219.94" y2="430.13"/><line class="cls-2" x1="2219.94" y1="430.13" x2="2186.96" y2="399.5"/><line class="cls-2" x1="2186.96" y1="399.5" x2="2152.67" y2="370.4"/><line class="cls-2" x1="2152.67" y1="370.4" x2="2117.52" y2="342.33"/><line class="cls-2" x1="2117.52" y1="342.33" x2="2080.63" y2="316.3"/><line class="cls-2" x1="2080.63" y1="316.3" x2="2042.91" y2="291.77"/><line class="cls-2" x1="2042.91" y1="291.77" x2="2004.36" y2="268.73"/><line class="cls-2" x1="2004.36" y1="268.73" x2="1965.02" y2="247.67"/><line class="cls-2" x1="1965.02" y1="247.67" x2="1924.38" y2="228.14"/><line class="cls-2" x1="1924.38" y1="228.14" x2="1882.9" y2="210.11"/><line class="cls-2" x1="1882.9" y1="210.11" x2="1841.11" y2="194"/><line class="cls-2" x1="1841.11" y1="194" x2="1798.53" y2="179.87"/><line class="cls-2" x1="1798.53" y1="179.87" x2="1755.15" y2="167.71"/><line class="cls-2" x1="1755.15" y1="167.71" x2="1711.42" y2="157"/><line class="cls-2" x1="1711.42" y1="157" x2="1667.37" y2="148.23"/><line class="cls-2" x1="1667.37" y1="148.23" x2="1623.01" y2="141.38"/><line class="cls-2" x1="1632.3" y1="836.77" x2="1694.69" y2="836.9"/><line class="cls-2" x1="1442.18" y1="835.19" x2="1522.23" y2="835.78"/><line class="cls-2" x1="1158.7" y1="833.15" x2="1332.11" y2="834.2"/><line class="cls-2" x1="1632.44" y1="821.05" x2="1693.89" y2="821.26"/><line class="cls-2" x1="1442.32" y1="819.46" x2="1522.37" y2="820.06"/><line class="cls-2" x1="1162.62" y1="817.12" x2="1332.25" y2="818.47"/><line class="cls-2" x1="1738.68" y1="1258.04" x2="1733.3" y2="1907.97"/><line class="cls-2" x1="1693.7" y1="970.31" x2="1686.55" y2="1860.37"/><line class="cls-2" x1="1694.69" y1="836.9" x2="1694.22" y2="860.27"/><line class="cls-2" x1="1709.43" y1="970.45" x2="1708.38" y2="1091.48"/><line class="cls-2" x1="1710.38" y1="830.86" x2="1709.95" y2="860.42"/><line class="cls-2" x1="1738.68" y1="1258.04" x2="2562.86" y2="960.6"/><line class="cls-2" x1="1782.2" y1="1091.63" x2="2273.84" y2="914.26"/><line class="cls-2" x1="1781.38" y1="1192.17" x2="2507.53" y2="930.37"/><line class="cls-2" x1="1848.24" y1="833.86" x2="2135.44" y2="695.12"/><line class="cls-2" x1="1710.38" y1="830.86" x2="2316.38" y2="537.94"/><line class="cls-2" x1="1693.89" y1="821.26" x2="2306.27" y2="524.96"/><line class="cls-2" x1="1490.92" y1="819.77" x2="1560.08" y2="134.63"/><line class="cls-2" x1="1507.12" y1="819.88" x2="1575.92" y2="136.19"/><line class="cls-2" x1="974.02" y1="223.07" x2="1143.17" y2="806.33"/><line class="cls-2" x1="988.76" y1="217.1" x2="1162.62" y2="817.12"/><line class="cls-2" x1="399.66" y1="600.05" x2="971.3" y2="1365.13"/><line class="cls-2" x1="459.25" y1="600.89" x2="996.67" y2="1320.2"/><line class="cls-2" x1="1141.96" y1="960.23" x2="1141.85" y2="982.14"/><line class="cls-2" x1="1143.17" y1="806.33" x2="1142.91" y2="849.68"/><line class="cls-2" x1="1157.68" y1="960.37" x2="1157.57" y2="982.28"/><line class="cls-2" x1="1158.7" y1="833.15" x2="1158.63" y2="849.82"/><line class="cls-2" x1="971.3" y1="1365.13" x2="1388.86" y2="1393.81"/><line class="cls-2" x1="1012.39" y1="1320.34" x2="1392.12" y2="1346.4"/><line class="cls-2" x1="1391.73" y1="1394.05" x2="1455.58" y2="1394.54"/><line class="cls-2" x1="1392.12" y1="1346.4" x2="1503.14" y2="1347.31"/><line class="cls-2" x1="1505.51" y1="1079.52" x2="1506.36" y2="985.17"/><line class="cls-2" x1="1503.14" y1="1347.31" x2="1503.85" y2="1268.69"/><line class="cls-2" x1="1489.78" y1="1079.37" x2="1490.49" y2="1000.75"/><line class="cls-2" x1="1487.42" y1="1347.17" x2="1488.12" y2="1268.55"/><line class="cls-2" x1="1454.35" y1="1559.87" x2="1455.58" y2="1394.54"/><line class="cls-2" x1="1451.71" y1="1905.78" x2="1453.87" y2="1670.38"/><line class="cls-2" x1="1641.97" y1="1734.5" x2="1642.11" y2="1718.78"/><line class="cls-2" x1="1531.89" y1="1733.51" x2="1532.03" y2="1717.79"/><line class="cls-2" x1="1501.53" y1="1560.29" x2="1503.14" y2="1347.31"/><line class="cls-2" x1="1499.31" y1="1859.03" x2="1501.05" y2="1670.8"/><line class="cls-2" x1="1392.12" y1="1346.4" x2="1394.72" y2="1000.02"/><line class="cls-2" x1="1376.32" y1="1345.31" x2="1379" y2="999.88"/><line class="cls-2" x1="996.67" y1="1320.2" x2="1019.87" y2="981.17"/><line class="cls-2" x1="1137.86" y1="1329.12" x2="1160.78" y2="998.21"/><line class="cls-2" x1="1012.39" y1="1320.34" x2="1034.51" y2="997.12"/><line class="cls-2" x1="1627.15" y1="110.57" x2="1577.62" y2="104.62"/><line class="cls-2" x1="1577.62" y1="104.62" x2="1527.81" y2="101.08"/><line class="cls-2" x1="1527.81" y1="101.08" x2="1478.11" y2="98.96"/><line class="cls-2" x1="1478.11" y1="98.96" x2="1428.61" y2="99.2"/><line class="cls-2" x1="1428.61" y1="99.2" x2="1378.76" y2="100.9"/><line class="cls-2" x1="1378.76" y1="100.9" x2="1329.05" y2="104.49"/><line class="cls-2" x1="1329.05" y1="104.49" x2="1280.02" y2="110.41"/><line class="cls-2" x1="1280.02" y1="110.41" x2="1230.62" y2="117.78"/><line class="cls-2" x1="1230.62" y1="117.78" x2="1181.86" y2="127.01"/><line class="cls-2" x1="1181.86" y1="127.01" x2="1133.25" y2="138.13"/><line class="cls-2" x1="1133.25" y1="138.13" x2="1085.26" y2="151.11"/><line class="cls-2" x1="1085.26" y1="151.11" x2="1037.91" y2="165.93"/><line class="cls-2" x1="1037.91" y1="165.93" x2="991.18" y2="182.62"/><line class="cls-2" x1="991.18" y1="182.62" x2="944.61" y2="201.19"/><line class="cls-2" x1="944.61" y1="201.19" x2="899.1" y2="221.1"/><line class="cls-2" x1="899.1" y1="221.1" x2="854.69" y2="242.83"/><line class="cls-2" x1="854.69" y1="242.83" x2="810.91" y2="266.41"/><line class="cls-2" x1="810.91" y1="266.41" x2="767.71" y2="291.38"/><line class="cls-2" x1="767.71" y1="291.38" x2="725.62" y2="318.15"/><line class="cls-2" x1="725.62" y1="318.15" x2="685.06" y2="346.23"/><line class="cls-2" x1="685.06" y1="346.23" x2="645.14" y2="376.16"/><line class="cls-2" x1="645.14" y1="376.16" x2="606.27" y2="407.44"/><line class="cls-2" x1="606.27" y1="407.44" x2="568.98" y2="440.49"/><line class="cls-2" x1="568.98" y1="440.49" x2="532.71" y2="474.41"/><line class="cls-2" x1="532.71" y1="474.41" x2="497.97" y2="509.63"/><line class="cls-2" x1="1629.19" y1="94.69" x2="1579.69" y2="89.22"/><line class="cls-2" x1="1579.69" y1="89.22" x2="1530.32" y2="85.16"/><line class="cls-2" x1="1530.32" y1="85.16" x2="1480.66" y2="83.51"/><line class="cls-2" x1="1480.66" y1="83.51" x2="1430.65" y2="83.32"/><line class="cls-2" x1="1430.65" y1="83.32" x2="1381.26" y2="84.98"/><line class="cls-2" x1="1381.26" y1="84.98" x2="1331.56" y2="88.57"/><line class="cls-2" x1="1331.56" y1="88.57" x2="1282.01" y2="94.06"/><line class="cls-2" x1="1282.01" y1="94.06" x2="1233.09" y2="101.39"/><line class="cls-2" x1="1233.09" y1="101.39" x2="1184.32" y2="110.62"/><line class="cls-2" x1="1184.32" y1="110.62" x2="1135.67" y2="121.27"/><line class="cls-2" x1="1135.67" y1="121.27" x2="1087.69" y2="134.24"/><line class="cls-2" x1="1087.69" y1="134.24" x2="1040.3" y2="148.6"/><line class="cls-2" x1="1040.3" y1="148.6" x2="993.06" y2="164.84"/><line class="cls-2" x1="993.06" y1="164.84" x2="946.92" y2="182.9"/><line class="cls-2" x1="946.92" y1="182.9" x2="901.41" y2="202.82"/><line class="cls-2" x1="901.41" y1="202.82" x2="856.49" y2="224.11"/><line class="cls-2" x1="856.49" y1="224.11" x2="812.67" y2="247.22"/><line class="cls-2" x1="812.67" y1="247.22" x2="769.48" y2="272.18"/><line class="cls-2" x1="769.48" y1="272.18" x2="727.35" y2="298.49"/><line class="cls-2" x1="727.35" y1="298.49" x2="686.28" y2="326.13"/><line class="cls-2" x1="686.28" y1="326.13" x2="645.84" y2="355.63"/><line class="cls-2" x1="645.84" y1="355.63" x2="606.93" y2="386.43"/><line class="cls-2" x1="606.93" y1="386.43" x2="569.13" y2="419.05"/><line class="cls-2" x1="569.13" y1="419.05" x2="532.82" y2="452.5"/><line class="cls-2" x1="532.82" y1="452.5" x2="497.61" y2="487.76"/><line class="cls-2" x1="497.61" y1="487.76" x2="463.43" y2="523.88"/><line class="cls-2" x1="463.43" y1="523.88" x2="430.78" y2="561.32"/><line class="cls-2" x1="430.78" y1="561.32" x2="399.66" y2="600.05"/><line class="cls-2" x1="1241.88" y1="179.72" x2="1192.17" y2="189.02"/><line class="cls-2" x1="1192.17" y1="189.02" x2="1142.65" y2="200.69"/><line class="cls-2" x1="1142.65" y1="200.69" x2="1093.76" y2="214.22"/><line class="cls-2" x1="1093.76" y1="214.22" x2="1045.06" y2="230.11"/><line class="cls-2" x1="1045.06" y1="230.11" x2="997.43" y2="247.34"/><line class="cls-2" x1="836.12" y1="324.35" x2="789.34" y2="351.98"/><line class="cls-2" x1="789.34" y1="351.98" x2="743.26" y2="382.42"/><line class="cls-2" x1="743.26" y1="382.42" x2="698.72" y2="414.16"/><line class="cls-2" x1="698.72" y1="414.16" x2="655.79" y2="448.15"/><line class="cls-2" x1="530.76" y1="566.94" x2="512.84" y2="586.5"/><line class="cls-2" x1="512.84" y1="586.5" x2="495.9" y2="606.46"/><line class="cls-2" x1="495.9" y1="606.46" x2="479" y2="626.89"/><line class="cls-2" x1="1623.01" y1="141.38" x2="1573.04" y2="135.95"/><line class="cls-2" x1="1573.04" y1="135.95" x2="1522.72" y2="131.97"/><line class="cls-2" x1="1522.72" y1="131.97" x2="1472.59" y2="130.36"/><line class="cls-2" x1="1472.59" y1="130.36" x2="1422.62" y2="130.64"/><line class="cls-2" x1="1422.62" y1="130.64" x2="1372.32" y2="132.85"/><line class="cls-2" x1="1372.32" y1="132.85" x2="1322.19" y2="136.96"/><line class="cls-2" x1="1322.19" y1="136.96" x2="1272.2" y2="142.95"/><line class="cls-2" x1="1272.2" y1="142.95" x2="1222.89" y2="151.27"/><line class="cls-2" x1="1222.89" y1="151.27" x2="1173.21" y2="161.05"/><line class="cls-2" x1="1173.21" y1="161.05" x2="1124.68" y2="173.12"/><line class="cls-2" x1="1124.68" y1="173.12" x2="1076.26" y2="186.6"/><line class="cls-2" x1="1076.26" y1="186.6" x2="1028.51" y2="202.42"/><line class="cls-2" x1="1028.51" y1="202.42" x2="981.39" y2="220.08"/><line class="cls-2" x1="981.39" y1="220.08" x2="934.89" y2="239.6"/><line class="cls-2" x1="934.89" y1="239.6" x2="889.46" y2="260.46"/><line class="cls-2" x1="889.46" y1="260.46" x2="844.7" y2="283.65"/><line class="cls-2" x1="844.7" y1="283.65" x2="800.99" y2="308.17"/><line class="cls-2" x1="800.99" y1="308.17" x2="758.39" y2="334.52"/><line class="cls-2" x1="758.39" y1="334.52" x2="716.41" y2="362.71"/><line class="cls-2" x1="716.41" y1="362.71" x2="675.97" y2="392.21"/><line class="cls-2" x1="675.97" y1="392.21" x2="636.63" y2="423.52"/><line class="cls-2" x1="636.63" y1="423.52" x2="598.35" y2="456.18"/><line class="cls-2" x1="598.35" y1="456.18" x2="561.61" y2="490.14"/><line class="cls-2" x1="561.61" y1="490.14" x2="525.97" y2="525.91"/><line class="cls-2" x1="525.97" y1="525.91" x2="491.86" y2="562.98"/><line class="cls-2" x1="491.86" y1="562.98" x2="459.25" y2="600.89"/><line class="cls-2" x1="1365.17" y1="999.58" x2="1490.49" y2="1000.75"/><line class="cls-2" x1="1034.51" y1="997.12" x2="1255.13" y2="999.06"/><line class="cls-2" x1="1365.31" y1="983.85" x2="1506.36" y2="985.17"/><line class="cls-2" x1="1019.87" y1="981.17" x2="1255.27" y2="983.34"/><line class="cls-2" x1="1451.71" y1="1905.78" x2="1733.3" y2="1907.97"/><line class="cls-2" x1="1642.11" y1="1718.78" x2="1687.82" y2="1718.84"/><line class="cls-2" x1="1500.58" y1="1717.5" x2="1532.03" y2="1717.79"/><line class="cls-2" x1="1641.97" y1="1734.5" x2="1687.68" y2="1734.57"/><line class="cls-2" x1="1500.44" y1="1733.23" x2="1531.89" y2="1733.51"/><line class="cls-2" x1="1499.31" y1="1859.03" x2="1686.55" y2="1860.37"/><line class="cls-2" x1="1782.24" y1="1092.11" x2="1708.38" y2="1091.48"/><line class="cls-2" x1="1782.24" y1="1092.11" x2="1781.38" y2="1192.17"/><line class="cls-2" x1="2465.1" y1="894.8" x2="2495.3" y2="885.66"/><line class="cls-2" x1="2490.08" y1="868.47" x2="2535.11" y2="854.31"/><line class="cls-2" x1="2433.66" y1="725.95" x2="2475.78" y2="705.36"/><line class="cls-2" x1="2396.74" y1="722.79" x2="2424.62" y2="708.6"/><line class="cls-2" x1="2273.84" y1="914.26" x2="2305.87" y2="1003.06"/><line class="cls-2" x1="1820.78" y1="777.54" x2="1848.24" y2="833.86"/><line class="cls-2" x1="2107.98" y1="638.8" x2="2135.44" y2="695.12"/><line class="cls-2" x1="2279.91" y1="493.79" x2="2315.94" y2="462.75"/><line class="cls-2" x1="2106.89" y1="334.63" x2="2134.73" y2="296.63"/><line class="cls-2" x1="1901.61" y1="217.62" x2="1920.47" y2="174.65"/><line class="cls-2" x1="1627.81" y1="141.94" x2="1633.99" y2="95.25"/><line class="cls-2" x1="1539.98" y1="133.42" x2="1543.24" y2="86.01"/><line class="cls-2" x1="1253.4" y1="145.92" x2="1246.26" y2="99.36"/><line class="cls-2" x1="1241.88" y1="179.72" x2="1236.49" y2="148.73"/><line class="cls-2" x1="2074.83" y1="350.11" x2="2092.76" y2="324.83"/><line class="cls-2" x1="1904.55" y1="253.57" x2="1917.44" y2="224.9"/><line class="cls-2" x1="960.17" y1="228.48" x2="942.35" y2="185.18"/><line class="cls-2" x1="836.93" y1="287.62" x2="814.48" y2="246.12"/><line class="cls-2" x1="621.91" y1="435.68" x2="591.34" y2="399.61"/><line class="cls-2" x1="520.72" y1="531.58" x2="486.64" y2="499.13"/><line class="cls-2" x1="530.76" y1="566.94" x2="507.58" y2="545.51"/><line class="cls-2" x1="655.79" y1="448.15" x2="635.72" y2="424.07"/><line class="cls-2" x1="836.12" y1="324.35" x2="820.99" y2="296.54"/><line class="cls-2" x1="1141.96" y1="960.23" x2="1157.68" y2="960.37"/><line class="cls-2" x1="1142.91" y1="849.68" x2="1158.63" y2="849.82"/><line class="cls-2" x1="1332.25" y1="818.47" x2="1332.11" y2="834.2"/><line class="cls-2" x1="1442.32" y1="819.46" x2="1442.18" y2="835.19"/><line class="cls-2" x1="1632.44" y1="821.05" x2="1632.3" y2="836.77"/><line class="cls-2" x1="1522.37" y1="820.06" x2="1522.23" y2="835.78"/><line class="cls-2" x1="1255.27" y1="983.34" x2="1255.13" y2="999.06"/><line class="cls-2" x1="1365.31" y1="983.85" x2="1365.17" y2="999.58"/><line class="cls-2" x1="1693.7" y1="970.31" x2="1709.43" y2="970.45"/><line class="cls-2" x1="1694.22" y1="860.27" x2="1709.95" y2="860.42"/><line class="cls-2" x1="1453.87" y1="1670.38" x2="1501.05" y2="1670.8"/><line class="cls-2" x1="1454.35" y1="1559.87" x2="1501.53" y2="1560.29"/><line class="cls-2" x1="1488.12" y1="1268.55" x2="1503.85" y2="1268.69"/><line class="cls-2" x1="1489.78" y1="1079.37" x2="1505.51" y2="1079.52"/><polygon class="cls-3" points="1733.3 1907.97 1686.55 1860.37 1693.7 970.31 1709.43 970.45 1708.38 1091.48 1782.24 1092.11 1781.38 1192.17 1738.68 1258.04 1733.3 1907.97"/><line class="cls-2" x1="1733.3" y1="1907.97" x2="1686.55" y2="1860.37"/><line class="cls-2" x1="1686.55" y1="1860.37" x2="1693.7" y2="970.31"/><line class="cls-2" x1="1693.7" y1="970.31" x2="1709.43" y2="970.45"/><line class="cls-2" x1="1709.43" y1="970.45" x2="1709.43" y2="970.45"/><line class="cls-2" x1="1709.43" y1="970.45" x2="1708.38" y2="1091.48"/><line class="cls-2" x1="1708.38" y1="1091.48" x2="1782.24" y2="1092.11"/><line class="cls-2" x1="1782.24" y1="1092.11" x2="1781.38" y2="1192.17"/><line class="cls-2" x1="1781.38" y1="1192.17" x2="1738.68" y2="1258.04"/><line class="cls-2" x1="1738.68" y1="1258.04" x2="1733.3" y2="1907.97"/><polygon class="cls-3" points="1738.68 1258.04 1781.38 1192.17 2507.53 930.37 2562.86 960.6 1738.68 1258.04"/><line class="cls-2" x1="1738.68" y1="1258.04" x2="1781.38" y2="1192.17"/><line class="cls-2" x1="1781.38" y1="1192.17" x2="2507.53" y2="930.37"/><line class="cls-2" x1="2507.53" y1="930.37" x2="2562.86" y2="960.6"/><line class="cls-2" x1="2562.86" y1="960.6" x2="1738.68" y2="1258.04"/><polygon class="cls-3" points="1686.55 1860.37 1733.3 1907.97 1451.71 1905.78 1499.31 1859.03 1686.55 1860.37"/><line class="cls-2" x1="1686.55" y1="1860.37" x2="1733.3" y2="1907.97"/><line class="cls-2" x1="1733.3" y1="1907.97" x2="1451.71" y2="1905.78"/><line class="cls-2" x1="1451.71" y1="1905.78" x2="1499.31" y2="1859.03"/><line class="cls-2" x1="1499.31" y1="1859.03" x2="1686.55" y2="1860.37"/><polygon class="cls-3" points="1499.31 1859.03 1451.71 1905.78 1453.87 1670.38 1501.05 1670.8 1499.31 1859.03"/><line class="cls-2" x1="1499.31" y1="1859.03" x2="1451.71" y2="1905.78"/><line class="cls-2" x1="1451.71" y1="1905.78" x2="1453.87" y2="1670.38"/><line class="cls-2" x1="1453.87" y1="1670.38" x2="1501.05" y2="1670.8"/><line class="cls-2" x1="1501.05" y1="1670.8" x2="1499.31" y2="1859.03"/><polygon class="cls-3" points="1501.53 1560.29 1454.35 1559.87 1455.58 1394.54 1503.14 1347.31 1501.53 1560.29"/><line class="cls-2" x1="1501.53" y1="1560.29" x2="1454.35" y2="1559.87"/><line class="cls-2" x1="1454.35" y1="1559.87" x2="1455.58" y2="1394.54"/><line class="cls-2" x1="1455.58" y1="1394.54" x2="1503.14" y2="1347.31"/><line class="cls-2" x1="1503.14" y1="1347.31" x2="1501.53" y2="1560.29"/><rect class="cls-4" x="1456.32" y="1300.07" width="78.63" height="15.73" transform="translate(174.3 2791.73) rotate(-89.48)"/><line class="cls-2" x1="1503.14" y1="1347.31" x2="1487.42" y2="1347.17"/><line class="cls-2" x1="1487.42" y1="1347.17" x2="1488.12" y2="1268.55"/><line class="cls-2" x1="1488.12" y1="1268.55" x2="1503.85" y2="1268.69"/><line class="cls-2" x1="1503.85" y1="1268.69" x2="1503.14" y2="1347.31"/><polygon class="cls-3" points="1505.51 1079.52 1489.78 1079.38 1490.49 1000.75 1506.36 985.17 1505.51 1079.52"/><line class="cls-2" x1="1505.51" y1="1079.52" x2="1489.78" y2="1079.37"/><line class="cls-2" x1="1489.78" y1="1079.37" x2="1490.49" y2="1000.75"/><line class="cls-2" x1="1490.49" y1="1000.75" x2="1506.36" y2="985.17"/><line class="cls-2" x1="1506.36" y1="985.17" x2="1505.51" y2="1079.52"/><polygon class="cls-3" points="1687.68 1734.57 1641.97 1734.5 1642.11 1718.78 1687.82 1718.84 1687.68 1734.57"/><line class="cls-2" x1="1687.68" y1="1734.57" x2="1641.97" y2="1734.5"/><line class="cls-2" x1="1641.97" y1="1734.5" x2="1642.11" y2="1718.78"/><line class="cls-2" x1="1642.11" y1="1718.78" x2="1687.82" y2="1718.84"/><line class="cls-2" x1="1687.82" y1="1718.84" x2="1687.68" y2="1734.57"/><rect class="cls-4" x="1508.37" y="1709.78" width="15.73" height="31.45" transform="translate(-222.84 3226.15) rotate(-89.48)"/><line class="cls-2" x1="1500.44" y1="1733.23" x2="1531.89" y2="1733.51"/><line class="cls-2" x1="1531.89" y1="1733.51" x2="1532.03" y2="1717.79"/><line class="cls-2" x1="1532.03" y1="1717.79" x2="1500.58" y2="1717.5"/><line class="cls-2" x1="1500.58" y1="1717.5" x2="1500.44" y2="1733.23"/><polygon class="cls-3" points="1710.38 830.86 1693.88 821.26 2306.27 524.96 2335.86 525.87 2316.38 537.94 1710.38 830.86"/><line class="cls-2" x1="1710.38" y1="830.86" x2="1693.89" y2="821.26"/><line class="cls-2" x1="1693.89" y1="821.26" x2="2306.27" y2="524.96"/><line class="cls-2" x1="2306.27" y1="524.96" x2="2335.86" y2="525.87"/><line class="cls-2" x1="2335.86" y1="525.87" x2="2316.38" y2="537.94"/><line class="cls-2" x1="2316.38" y1="537.94" x2="1710.38" y2="830.86"/><polygon class="cls-3" points="1709.95 860.42 1694.22 860.27 1694.69 836.9 1710.38 830.86 1709.95 860.42"/><line class="cls-2" x1="1709.95" y1="860.42" x2="1694.22" y2="860.27"/><line class="cls-2" x1="1694.22" y1="860.27" x2="1694.69" y2="836.9"/><line class="cls-2" x1="1694.69" y1="836.9" x2="1710.38" y2="830.86"/><line class="cls-2" x1="1710.38" y1="830.86" x2="1709.95" y2="860.42"/><polygon class="cls-3" points="1694.69 836.9 1710.38 830.86 1693.88 821.26 1632.44 821.05 1632.3 836.77 1694.69 836.9"/><line class="cls-2" x1="1694.69" y1="836.9" x2="1710.38" y2="830.86"/><line class="cls-2" x1="1710.38" y1="830.86" x2="1693.89" y2="821.26"/><line class="cls-2" x1="1693.89" y1="821.26" x2="1632.44" y2="821.05"/><line class="cls-2" x1="1632.44" y1="821.05" x2="1632.3" y2="836.77"/><line class="cls-2" x1="1632.3" y1="836.77" x2="1694.69" y2="836.9"/><polygon class="cls-3" points="1507.12 819.88 1490.92 819.77 1560.08 134.63 1576.83 129.92 1507.12 819.88"/><line class="cls-2" x1="1507.12" y1="819.88" x2="1490.92" y2="819.77"/><line class="cls-2" x1="1490.92" y1="819.77" x2="1560.08" y2="134.63"/><line class="cls-2" x1="1560.08" y1="134.63" x2="1576.83" y2="129.92"/><line class="cls-2" x1="1576.83" y1="129.92" x2="1507.12" y2="819.88"/><polygon class="cls-3" points="1442.18 835.19 1442.32 819.47 1522.37 820.06 1522.23 835.78 1442.18 835.19"/><line class="cls-2" x1="1442.18" y1="835.19" x2="1442.32" y2="819.46"/><line class="cls-2" x1="1442.32" y1="819.46" x2="1522.37" y2="820.06"/><line class="cls-2" x1="1522.37" y1="820.06" x2="1522.23" y2="835.78"/><line class="cls-2" x1="1522.23" y1="835.78" x2="1442.18" y2="835.19"/><polygon class="cls-3" points="971.3 1365.13 996.66 1320.2 1012.39 1320.34 1392.12 1346.4 1503.14 1347.31 1455.58 1394.54 1388.86 1393.81 971.3 1365.13"/><line class="cls-2" x1="971.3" y1="1365.13" x2="996.67" y2="1320.2"/><line class="cls-2" x1="996.67" y1="1320.2" x2="1012.39" y2="1320.34"/><line class="cls-2" x1="1012.39" y1="1320.34" x2="1392.12" y2="1346.4"/><line class="cls-2" x1="1392.12" y1="1346.4" x2="1503.14" y2="1347.31"/><line class="cls-2" x1="1503.14" y1="1347.31" x2="1455.58" y2="1394.54"/><line class="cls-2" x1="1455.58" y1="1394.54" x2="1388.86" y2="1393.81"/><line class="cls-2" x1="1388.86" y1="1393.81" x2="971.3" y2="1365.13"/><polygon class="cls-3" points="1376.32 1345.31 1392.12 1346.4 1394.72 1000.02 1379 999.88 1376.32 1345.31"/><line class="cls-2" x1="1376.32" y1="1345.31" x2="1392.12" y2="1346.4"/><line class="cls-2" x1="1392.12" y1="1346.4" x2="1394.72" y2="1000.02"/><line class="cls-2" x1="1394.72" y1="1000.02" x2="1379" y2="999.88"/><line class="cls-2" x1="1379" y1="999.88" x2="1376.32" y2="1345.31"/><polygon class="cls-3" points="1490.49 1000.75 1506.36 985.17 1365.31 983.85 1365.16 999.58 1490.49 1000.75"/><line class="cls-2" x1="1490.49" y1="1000.75" x2="1506.36" y2="985.17"/><line class="cls-2" x1="1506.36" y1="985.17" x2="1365.31" y2="983.85"/><line class="cls-2" x1="1365.31" y1="983.85" x2="1365.17" y2="999.58"/><line class="cls-2" x1="1365.17" y1="999.58" x2="1490.49" y2="1000.75"/><polygon class="cls-3" points="1255.13 999.06 1255.27 983.34 1019.87 981.17 1034.51 997.12 1255.13 999.06"/><line class="cls-2" x1="1255.13" y1="999.06" x2="1255.27" y2="983.34"/><line class="cls-2" x1="1255.27" y1="983.34" x2="1019.87" y2="981.17"/><line class="cls-2" x1="1019.87" y1="981.17" x2="1034.51" y2="997.12"/><line class="cls-2" x1="1034.51" y1="997.12" x2="1255.13" y2="999.06"/><polygon class="cls-3" points="996.66 1320.2 1012.39 1320.34 1034.51 997.12 1019.87 981.17 996.66 1320.2"/><line class="cls-2" x1="996.67" y1="1320.2" x2="1012.39" y2="1320.34"/><line class="cls-2" x1="1012.39" y1="1320.34" x2="1034.51" y2="997.12"/><line class="cls-2" x1="1034.51" y1="997.12" x2="1019.87" y2="981.17"/><line class="cls-2" x1="1019.87" y1="981.17" x2="996.67" y2="1320.2"/><polygon class="cls-3" points="1332.25 818.47 1332.11 834.2 1158.7 833.15 1162.63 817.12 1332.25 818.47"/><line class="cls-2" x1="1332.25" y1="818.47" x2="1332.11" y2="834.2"/><line class="cls-2" x1="1332.11" y1="834.2" x2="1158.7" y2="833.15"/><line class="cls-2" x1="1158.7" y1="833.15" x2="1162.62" y2="817.12"/><line class="cls-2" x1="1162.62" y1="817.12" x2="1332.25" y2="818.47"/><polygon class="cls-3" points="1162.63 817.12 1143.17 806.33 974.01 223.07 983.45 210.39 988.76 217.1 1162.63 817.12"/><line class="cls-2" x1="1162.62" y1="817.12" x2="1143.17" y2="806.33"/><line class="cls-2" x1="1143.17" y1="806.33" x2="974.02" y2="223.07"/><line class="cls-2" x1="974.02" y1="223.07" x2="983.45" y2="210.39"/><line class="cls-2" x1="983.45" y1="210.39" x2="988.76" y2="217.1"/><line class="cls-2" x1="988.76" y1="217.1" x2="1162.62" y2="817.12"/><polygon class="cls-3" points="1143.17 806.33 1162.63 817.12 1158.7 833.15 1158.63 849.82 1142.91 849.68 1143.17 806.33"/><line class="cls-2" x1="1143.17" y1="806.33" x2="1162.62" y2="817.12"/><line class="cls-2" x1="1162.62" y1="817.12" x2="1158.7" y2="833.15"/><line class="cls-2" x1="1158.7" y1="833.15" x2="1158.63" y2="849.82"/><line class="cls-2" x1="1158.63" y1="849.82" x2="1142.91" y2="849.68"/><line class="cls-2" x1="1142.91" y1="849.68" x2="1143.17" y2="806.33"/><polygon class="cls-3" points="1157.57 982.28 1141.85 982.14 1141.96 960.23 1157.68 960.37 1157.57 982.28"/><line class="cls-2" x1="1157.57" y1="982.28" x2="1141.85" y2="982.14"/><line class="cls-2" x1="1141.85" y1="982.14" x2="1141.96" y2="960.23"/><line class="cls-2" x1="1141.96" y1="960.23" x2="1157.68" y2="960.37"/><line class="cls-2" x1="1157.68" y1="960.37" x2="1157.57" y2="982.28"/><polygon class="cls-3" points="971.3 1365.13 996.66 1320.2 459.25 600.89 399.66 600.05 971.3 1365.13"/><line class="cls-2" x1="971.3" y1="1365.13" x2="996.67" y2="1320.2"/><line class="cls-2" x1="996.67" y1="1320.2" x2="459.25" y2="600.89"/><line class="cls-2" x1="459.25" y1="600.89" x2="399.66" y2="600.05"/><line class="cls-2" x1="399.66" y1="600.05" x2="971.3" y2="1365.13"/><polygon class="cls-3" points="2134.73 296.63 2093.83 268.08 2052.17 241.97 2009.21 217.39 1964.98 194.82 1920.47 174.65 1901.61 217.62 1907.05 220.03 1912.01 222.49 1917.44 224.9 1904.55 253.57 1948.66 274.72 1991.98 297.84 2034.04 322.97 2074.83 350.11 2092.76 324.83 2097.28 327.79 2101.85 331.23 2106.89 334.63 2134.73 296.63"/><line class="cls-2" x1="2134.73" y1="296.63" x2="2093.83" y2="268.08"/><line class="cls-2" x1="2093.83" y1="268.08" x2="2052.17" y2="241.97"/><line class="cls-2" x1="2052.17" y1="241.97" x2="2009.21" y2="217.39"/><line class="cls-2" x1="2009.21" y1="217.39" x2="1964.98" y2="194.82"/><line class="cls-2" x1="1964.98" y1="194.82" x2="1920.47" y2="174.65"/><line class="cls-2" x1="2074.83" y1="350.11" x2="2034.04" y2="322.97"/><line class="cls-2" x1="2034.04" y1="322.97" x2="1991.98" y2="297.84"/><line class="cls-2" x1="1991.98" y1="297.84" x2="1948.66" y2="274.72"/><line class="cls-2" x1="1948.66" y1="274.72" x2="1904.55" y2="253.57"/><line class="cls-2" x1="2106.89" y1="334.63" x2="2101.85" y2="331.23"/><line class="cls-2" x1="2101.85" y1="331.23" x2="2097.28" y2="327.79"/><line class="cls-2" x1="2097.28" y1="327.79" x2="2092.76" y2="324.83"/><line class="cls-2" x1="1917.44" y1="224.9" x2="1912.01" y2="222.49"/><line class="cls-2" x1="1912.01" y1="222.49" x2="1907.05" y2="220.04"/><line class="cls-2" x1="1907.05" y1="220.04" x2="1901.61" y2="217.62"/><line class="cls-2" x1="2106.89" y1="334.63" x2="2134.73" y2="296.63"/><line class="cls-2" x1="1901.61" y1="217.62" x2="1920.47" y2="174.65"/><line class="cls-2" x1="2074.83" y1="350.11" x2="2092.76" y2="324.83"/><line class="cls-2" x1="1904.55" y1="253.57" x2="1917.44" y2="224.9"/><polygon class="cls-3" points="2475.78 705.36 2453.7 662.41 2429.76 620.09 2404.01 578.87 2376.44 538.74 2346.62 500.23 2315.94 462.75 2279.91 493.79 2292.5 508 2304.65 522.71 2316.38 537.94 2287.51 551.74 2312.05 584.01 2335.26 617.35 2357.12 651.75 2377.6 686.74 2396.74 722.78 2424.62 708.6 2427.49 714.55 2430.79 720 2433.66 725.95 2475.78 705.36"/><line class="cls-2" x1="2475.78" y1="705.36" x2="2453.7" y2="662.41"/><line class="cls-2" x1="2453.7" y1="662.41" x2="2429.76" y2="620.09"/><line class="cls-2" x1="2429.76" y1="620.09" x2="2404.01" y2="578.87"/><line class="cls-2" x1="2404.01" y1="578.87" x2="2376.44" y2="538.74"/><line class="cls-2" x1="2376.44" y1="538.74" x2="2346.62" y2="500.23"/><line class="cls-2" x1="2346.62" y1="500.23" x2="2315.94" y2="462.75"/><line class="cls-2" x1="2396.74" y1="722.79" x2="2377.6" y2="686.73"/><line class="cls-2" x1="2377.6" y1="686.73" x2="2357.12" y2="651.75"/><line class="cls-2" x1="2357.12" y1="651.75" x2="2335.25" y2="617.35"/><line class="cls-2" x1="2335.25" y1="617.35" x2="2312.05" y2="584.01"/><line class="cls-2" x1="2312.05" y1="584.01" x2="2287.51" y2="551.73"/><line class="cls-2" x1="2433.66" y1="725.95" x2="2430.79" y2="720"/><line class="cls-2" x1="2430.79" y1="720" x2="2427.49" y2="714.55"/><line class="cls-2" x1="2427.49" y1="714.55" x2="2424.62" y2="708.6"/><line class="cls-2" x1="2316.38" y1="537.94" x2="2304.65" y2="522.71"/><line class="cls-2" x1="2304.65" y1="522.71" x2="2292.5" y2="508"/><line class="cls-2" x1="2292.5" y1="508" x2="2279.91" y2="493.79"/><line class="cls-2" x1="2433.66" y1="725.95" x2="2475.78" y2="705.36"/><line class="cls-2" x1="2396.74" y1="722.79" x2="2424.62" y2="708.6"/><line class="cls-2" x1="2279.91" y1="493.79" x2="2315.94" y2="462.75"/><line class="cls-2" x1="2287.51" y1="551.73" x2="2316.38" y2="537.94"/><polygon class="cls-3" points="2562.86 960.6 2554.68 924.61 2545.11 889.2 2535.11 854.31 2490.09 868.47 2491.49 874.07 2493.42 880.1 2495.3 885.66 2465.1 894.8 2469.21 910.18 2473.8 925.51 2477.44 940.93 2562.86 960.6"/><line class="cls-2" x1="2562.86" y1="960.6" x2="2554.68" y2="924.61"/><line class="cls-2" x1="2554.68" y1="924.61" x2="2545.11" y2="889.2"/><line class="cls-2" x1="2545.11" y1="889.2" x2="2535.11" y2="854.31"/><line class="cls-2" x1="2477.44" y1="940.93" x2="2473.8" y2="925.51"/><line class="cls-2" x1="2473.8" y1="925.51" x2="2469.21" y2="910.18"/><line class="cls-2" x1="2469.21" y1="910.18" x2="2465.1" y2="894.8"/><line class="cls-2" x1="2495.3" y1="885.66" x2="2493.42" y2="880.1"/><line class="cls-2" x1="2493.42" y1="880.1" x2="2491.5" y2="874.07"/><line class="cls-2" x1="2491.5" y1="874.07" x2="2490.08" y2="868.47"/><line class="cls-2" x1="2465.1" y1="894.8" x2="2495.3" y2="885.66"/><line class="cls-2" x1="2490.08" y1="868.47" x2="2535.11" y2="854.31"/><line class="cls-2" x1="2477.44" y1="940.93" x2="2562.86" y2="960.6"/><polygon class="cls-3" points="988.76 217.1 997.43 247.34 1045.06 230.11 1093.76 214.22 1142.65 200.69 1192.17 189.02 1241.88 179.72 1236.49 148.73 1242.13 147.79 1247.76 146.86 1253.4 145.92 1246.26 99.36 1194.14 108.39 1142.69 119.74 1091.87 132.95 1041.24 148.52 991.24 165.94 942.35 185.18 960.17 228.48 969.88 224.83 979.06 220.75 988.76 217.1"/><line class="cls-2" x1="988.76" y1="217.1" x2="997.43" y2="247.34"/><line class="cls-2" x1="1246.26" y1="99.36" x2="1194.14" y2="108.39"/><line class="cls-2" x1="1194.14" y1="108.39" x2="1142.69" y2="119.74"/><line class="cls-2" x1="1142.69" y1="119.74" x2="1091.87" y2="132.95"/><line class="cls-2" x1="1091.87" y1="132.95" x2="1041.24" y2="148.52"/><line class="cls-2" x1="1041.24" y1="148.52" x2="991.24" y2="165.94"/><line class="cls-2" x1="991.24" y1="165.94" x2="942.35" y2="185.18"/><line class="cls-2" x1="1241.88" y1="179.72" x2="1192.17" y2="189.02"/><line class="cls-2" x1="1192.17" y1="189.02" x2="1142.65" y2="200.69"/><line class="cls-2" x1="1142.65" y1="200.69" x2="1093.76" y2="214.22"/><line class="cls-2" x1="1093.76" y1="214.22" x2="1045.06" y2="230.11"/><line class="cls-2" x1="1045.06" y1="230.11" x2="997.43" y2="247.34"/><line class="cls-2" x1="1253.4" y1="145.92" x2="1247.76" y2="146.86"/><line class="cls-2" x1="1247.76" y1="146.86" x2="1242.13" y2="147.79"/><line class="cls-2" x1="1242.13" y1="147.79" x2="1236.49" y2="148.73"/><line class="cls-2" x1="988.76" y1="217.1" x2="979.06" y2="220.75"/><line class="cls-2" x1="979.06" y1="220.75" x2="969.87" y2="224.83"/><line class="cls-2" x1="969.87" y1="224.83" x2="960.17" y2="228.48"/><line class="cls-2" x1="1253.4" y1="145.92" x2="1246.26" y2="99.36"/><line class="cls-2" x1="1241.88" y1="179.72" x2="1236.49" y2="148.73"/><line class="cls-2" x1="960.17" y1="228.48" x2="942.35" y2="185.18"/><polygon class="cls-3" points="1633.99 95.25 1632.57 95.36 1630.64 95.05 1629.18 94.69 1600.34 91.34 1572.01 88.42 1543.24 86.01 1539.98 133.42 1567.76 135.43 1595.15 138.43 1623.01 141.38 1624.46 141.74 1625.92 142.1 1627.81 141.94 1633.99 95.25"/><line class="cls-2" x1="1633.99" y1="95.25" x2="1632.57" y2="95.36"/><line class="cls-2" x1="1632.57" y1="95.36" x2="1630.64" y2="95.05"/><line class="cls-2" x1="1630.64" y1="95.05" x2="1629.19" y2="94.69"/><line class="cls-2" x1="1627.81" y1="141.94" x2="1625.92" y2="142.1"/><line class="cls-2" x1="1625.92" y1="142.1" x2="1624.46" y2="141.74"/><line class="cls-2" x1="1624.46" y1="141.74" x2="1623.01" y2="141.38"/><line class="cls-2" x1="1629.19" y1="94.69" x2="1600.34" y2="91.34"/><line class="cls-2" x1="1600.34" y1="91.34" x2="1572.01" y2="88.42"/><line class="cls-2" x1="1572.01" y1="88.42" x2="1543.24" y2="86.01"/><line class="cls-2" x1="1623.01" y1="141.38" x2="1595.15" y2="138.42"/><line class="cls-2" x1="1595.15" y1="138.42" x2="1567.76" y2="135.43"/><line class="cls-2" x1="1567.76" y1="135.43" x2="1539.98" y2="133.42"/><line class="cls-2" x1="1627.81" y1="141.94" x2="1633.99" y2="95.25"/><line class="cls-2" x1="1539.98" y1="133.42" x2="1543.24" y2="86.01"/><polygon class="cls-3" points="486.64 499.13 456.44 531.6 427.78 565.37 399.67 600.05 479 626.89 495.9 606.46 512.84 586.5 530.76 566.94 507.57 545.51 511.96 540.86 516.34 536.22 520.72 531.58 486.64 499.13"/><line class="cls-2" x1="486.64" y1="499.13" x2="456.44" y2="531.6"/><line class="cls-2" x1="456.44" y1="531.6" x2="427.78" y2="565.37"/><line class="cls-2" x1="427.78" y1="565.37" x2="399.66" y2="600.05"/><line class="cls-2" x1="530.76" y1="566.94" x2="512.84" y2="586.5"/><line class="cls-2" x1="512.84" y1="586.5" x2="495.9" y2="606.46"/><line class="cls-2" x1="495.9" y1="606.46" x2="479" y2="626.89"/><line class="cls-2" x1="520.72" y1="531.58" x2="516.34" y2="536.22"/><line class="cls-2" x1="516.34" y1="536.22" x2="511.96" y2="540.86"/><line class="cls-2" x1="511.96" y1="540.86" x2="507.58" y2="545.51"/><line class="cls-2" x1="520.72" y1="531.58" x2="486.64" y2="499.13"/><line class="cls-2" x1="530.76" y1="566.94" x2="507.58" y2="545.51"/><line class="cls-2" x1="479" y1="626.89" x2="399.66" y2="600.05"/><polygon class="cls-3" points="814.48 246.12 767.19 273.32 721.47 302.3 676.85 333.1 633.29 365.23 591.34 399.61 621.91 435.68 626.37 431.98 631.26 427.77 635.72 424.07 655.79 448.14 698.72 414.16 743.26 382.42 789.34 351.98 836.12 324.35 820.99 296.54 826 293.75 831.48 290.92 836.92 287.62 814.48 246.12"/><line class="cls-2" x1="814.48" y1="246.12" x2="767.19" y2="273.32"/><line class="cls-2" x1="767.19" y1="273.32" x2="721.47" y2="302.3"/><line class="cls-2" x1="721.47" y1="302.3" x2="676.85" y2="333.1"/><line class="cls-2" x1="676.85" y1="333.1" x2="633.29" y2="365.23"/><line class="cls-2" x1="633.29" y1="365.23" x2="591.34" y2="399.61"/><line class="cls-2" x1="836.12" y1="324.35" x2="789.34" y2="351.98"/><line class="cls-2" x1="789.34" y1="351.98" x2="743.26" y2="382.42"/><line class="cls-2" x1="743.26" y1="382.42" x2="698.72" y2="414.16"/><line class="cls-2" x1="698.72" y1="414.16" x2="655.79" y2="448.15"/><line class="cls-2" x1="836.93" y1="287.62" x2="831.48" y2="290.92"/><line class="cls-2" x1="831.48" y1="290.92" x2="826" y2="293.75"/><line class="cls-2" x1="826" y1="293.75" x2="820.99" y2="296.54"/><line class="cls-2" x1="635.72" y1="424.07" x2="631.27" y2="427.77"/><line class="cls-2" x1="631.27" y1="427.77" x2="626.37" y2="431.98"/><line class="cls-2" x1="626.37" y1="431.98" x2="621.91" y2="435.68"/><line class="cls-2" x1="836.93" y1="287.62" x2="814.48" y2="246.12"/><line class="cls-2" x1="621.91" y1="435.68" x2="591.34" y2="399.61"/><line class="cls-2" x1="655.79" y1="448.15" x2="635.72" y2="424.07"/><line class="cls-2" x1="836.12" y1="324.35" x2="820.99" y2="296.54"/><line class="cls-2" x1="1632.59" y1="828.65" x2="1631.47" y2="814.94"/><line class="cls-2" x1="1631.47" y1="814.94" x2="1628.89" y2="800.86"/><line class="cls-2" x1="1628.89" y1="800.86" x2="1624.93" y2="787.38"/><line class="cls-2" x1="1624.93" y1="787.38" x2="1618.64" y2="774.56"/><line class="cls-2" x1="1618.64" y1="774.56" x2="1611.01" y2="762.8"/><line class="cls-2" x1="1611.01" y1="762.8" x2="1602.04" y2="752.11"/><line class="cls-2" x1="1602.04" y1="752.11" x2="1591.73" y2="742.48"/><line class="cls-2" x1="1591.73" y1="742.48" x2="1580.59" y2="734.34"/><line class="cls-2" x1="1580.59" y1="734.34" x2="1568.14" y2="727.74"/><line class="cls-2" x1="1568.14" y1="727.74" x2="1554.87" y2="722.64"/><line class="cls-2" x1="1554.87" y1="722.64" x2="1541.28" y2="719.47"/><line class="cls-2" x1="1541.28" y1="719.47" x2="1527.33" y2="717.75"/><polygon class="cls-3" points="1522.04 827.7 1523.03 717.63 1527.33 717.75 1526.34 827.83 1522.04 827.7"/><line class="cls-2" x1="1522.04" y1="827.7" x2="1523.03" y2="717.63"/><line class="cls-2" x1="1523.03" y1="717.63" x2="1527.33" y2="717.75"/><line class="cls-2" x1="1527.33" y1="717.75" x2="1526.34" y2="827.83"/><line class="cls-2" x1="1526.34" y1="827.83" x2="1522.04" y2="827.7"/><line class="cls-2" x1="1439.2" y1="717.34" x2="1425.01" y2="718.51"/><line class="cls-2" x1="1425.01" y1="718.51" x2="1411.45" y2="721.52"/><line class="cls-2" x1="1411.45" y1="721.52" x2="1398.52" y2="726.39"/><line class="cls-2" x1="1398.52" y1="726.39" x2="1385.7" y2="732.68"/><line class="cls-2" x1="1385.7" y1="732.68" x2="1373.98" y2="740.78"/><line class="cls-2" x1="1373.98" y1="740.78" x2="1363.8" y2="750.18"/><line class="cls-2" x1="1363.8" y1="750.18" x2="1354.68" y2="760.93"/><line class="cls-2" x1="1354.68" y1="760.93" x2="1346.58" y2="772.54"/><line class="cls-2" x1="1346.58" y1="772.54" x2="1340.5" y2="785.42"/><line class="cls-2" x1="1340.5" y1="785.42" x2="1336.34" y2="798.62"/><line class="cls-2" x1="1336.34" y1="798.62" x2="1333.17" y2="812.21"/><line class="cls-2" x1="1333.17" y1="812.21" x2="1332.43" y2="826.55"/><polygon class="cls-3" points="1442.47 827.07 1443.46 717 1439.2 717.35 1438.21 827.42 1442.47 827.07"/><line class="cls-2" x1="1442.47" y1="827.07" x2="1443.46" y2="717"/><line class="cls-2" x1="1443.46" y1="717" x2="1439.2" y2="717.34"/><line class="cls-2" x1="1439.2" y1="717.34" x2="1438.21" y2="827.42"/><line class="cls-2" x1="1438.21" y1="827.42" x2="1442.47" y2="827.07"/><line class="cls-2" x1="1151.03" y1="849.97" x2="1136.8" y2="850.66"/><line class="cls-2" x1="1136.8" y1="850.66" x2="1123.2" y2="853.2"/><line class="cls-2" x1="1123.2" y1="853.2" x2="1109.75" y2="857.63"/><line class="cls-2" x1="1109.75" y1="857.63" x2="1096.9" y2="863.45"/><line class="cls-2" x1="1096.9" y1="863.45" x2="1085.14" y2="871.08"/><line class="cls-2" x1="1085.14" y1="871.08" x2="1073.97" y2="880.08"/><line class="cls-2" x1="1073.97" y1="880.08" x2="1064.81" y2="890.36"/><line class="cls-2" x1="1064.81" y1="890.36" x2="1056.25" y2="902.01"/><line class="cls-2" x1="1056.25" y1="902.01" x2="1049.65" y2="914.46"/><line class="cls-2" x1="1049.65" y1="914.46" x2="1045.01" y2="927.69"/><line class="cls-2" x1="1045.01" y1="927.69" x2="1041.37" y2="941.32"/><line class="cls-2" x1="1041.37" y1="941.32" x2="1040.13" y2="955.23"/><polygon class="cls-3" points="1150.04 960.04 1039.96 959.05 1040.13 955.23 1150.2 956.22 1150.04 960.04"/><line class="cls-2" x1="1150.04" y1="960.05" x2="1039.96" y2="959.05"/><line class="cls-2" x1="1039.96" y1="959.05" x2="1040.13" y2="955.23"/><line class="cls-2" x1="1040.13" y1="955.23" x2="1150.2" y2="956.22"/><line class="cls-2" x1="1150.2" y1="956.22" x2="1150.04" y2="960.05"/><line class="cls-2" x1="1362.19" y1="881.73" x2="1348" y2="882.9"/><line class="cls-2" x1="1348" y1="882.9" x2="1334.47" y2="886.38"/><line class="cls-2" x1="1334.47" y1="886.38" x2="1321.03" y2="890.82"/><line class="cls-2" x1="1321.03" y1="890.82" x2="1308.72" y2="897.54"/><line class="cls-2" x1="1308.72" y1="897.54" x2="1297" y2="905.64"/><line class="cls-2" x1="1297" y1="905.64" x2="1286.82" y2="915.04"/><line class="cls-2" x1="1286.82" y1="915.04" x2="1277.66" y2="925.32"/><line class="cls-2" x1="1277.66" y1="925.32" x2="1269.61" y2="937.4"/><line class="cls-2" x1="1269.61" y1="937.4" x2="1263.48" y2="949.81"/><line class="cls-2" x1="1263.48" y1="949.81" x2="1258.85" y2="963.04"/><line class="cls-2" x1="1258.85" y1="963.04" x2="1256.19" y2="977.07"/><line class="cls-2" x1="1256.19" y1="977.07" x2="1255.42" y2="990.94"/><polygon class="cls-3" points="1365.49 991.93 1366.48 881.86 1362.19 881.73 1361.2 991.81 1365.49 991.93"/><line class="cls-2" x1="1365.49" y1="991.93" x2="1366.48" y2="881.86"/><line class="cls-2" x1="1366.48" y1="881.86" x2="1362.19" y2="881.73"/><line class="cls-2" x1="1362.19" y1="881.73" x2="1361.2" y2="991.81"/><line class="cls-2" x1="1361.2" y1="991.81" x2="1365.49" y2="991.93"/><line class="cls-2" x1="1497.05" y1="1174.01" x2="1511.72" y2="1172.81"/><line class="cls-2" x1="1511.72" y1="1172.81" x2="1526.7" y2="1169.68"/><line class="cls-2" x1="1526.7" y1="1169.68" x2="1540.5" y2="1163.79"/><polygon class="cls-3" points="1540.5 1163.79 1494.23 1081.39 1497.43 1079.7 1544.13 1161.59 1540.5 1163.79"/><line class="cls-2" x1="1540.5" y1="1163.79" x2="1494.23" y2="1081.39"/><line class="cls-2" x1="1494.23" y1="1081.39" x2="1497.43" y2="1079.7"/><line class="cls-2" x1="1497.43" y1="1079.7" x2="1544.13" y2="1161.59"/><line class="cls-2" x1="1544.13" y1="1161.59" x2="1540.5" y2="1163.79"/><line class="cls-2" x1="1540.35" y1="1185.23" x2="1526.53" y2="1179.22"/><line class="cls-2" x1="1526.53" y1="1179.22" x2="1511.95" y2="1175.65"/><line class="cls-2" x1="1511.95" y1="1175.65" x2="1496.58" y2="1174.05"/><polygon class="cls-3" points="1540.35 1185.23 1492.74 1266.74 1496.2 1268.36 1543.85 1187.32 1540.35 1185.23"/><line class="cls-2" x1="1540.35" y1="1185.23" x2="1492.74" y2="1266.74"/><line class="cls-2" x1="1492.74" y1="1266.74" x2="1496.2" y2="1268.36"/><line class="cls-2" x1="1496.2" y1="1268.36" x2="1543.85" y2="1187.32"/><line class="cls-2" x1="1543.85" y1="1187.32" x2="1540.35" y2="1185.23"/><line class="cls-2" x1="1587.4" y1="1667.07" x2="1586.28" y2="1653.35"/><line class="cls-2" x1="1586.28" y1="1653.35" x2="1583.23" y2="1639.31"/><line class="cls-2" x1="1583.23" y1="1639.31" x2="1578.36" y2="1626.38"/><line class="cls-2" x1="1578.36" y1="1626.38" x2="1571.6" y2="1613.6"/><line class="cls-2" x1="1571.6" y1="1613.6" x2="1563.54" y2="1602.36"/><line class="cls-2" x1="1563.54" y1="1602.36" x2="1554.57" y2="1591.66"/><line class="cls-2" x1="1554.57" y1="1591.66" x2="1543.82" y2="1582.54"/><line class="cls-2" x1="1543.82" y1="1582.54" x2="1531.77" y2="1574.96"/><line class="cls-2" x1="1531.77" y1="1574.96" x2="1519.33" y2="1568.36"/><line class="cls-2" x1="1519.33" y1="1568.36" x2="1506.13" y2="1564.2"/><line class="cls-2" x1="1506.13" y1="1564.2" x2="1492.07" y2="1561.07"/><line class="cls-2" x1="1492.07" y1="1561.07" x2="1478.19" y2="1560.3"/><polygon class="cls-3" points="1477.2 1670.37 1587.28 1671.36 1587.4 1667.07 1477.37 1666.55 1477.2 1670.37"/><line class="cls-2" x1="1477.2" y1="1670.37" x2="1587.28" y2="1671.36"/><line class="cls-2" x1="1587.28" y1="1671.36" x2="1587.4" y2="1667.07"/><line class="cls-2" x1="1587.4" y1="1667.07" x2="1477.37" y2="1666.55"/><line class="cls-2" x1="1477.37" y1="1666.55" x2="1477.2" y2="1670.37"/><line class="cls-2" x1="1642.25" y1="1726.38" x2="1641.09" y2="1712.19"/><line class="cls-2" x1="1641.09" y1="1712.19" x2="1638.55" y2="1698.59"/><line class="cls-2" x1="1638.55" y1="1698.59" x2="1634.59" y2="1685.11"/><line class="cls-2" x1="1634.59" y1="1685.11" x2="1628.3" y2="1672.29"/><line class="cls-2" x1="1628.3" y1="1672.29" x2="1620.68" y2="1660.53"/><line class="cls-2" x1="1620.68" y1="1660.53" x2="1611.71" y2="1649.84"/><line class="cls-2" x1="1611.71" y1="1649.84" x2="1601.39" y2="1640.21"/><line class="cls-2" x1="1601.39" y1="1640.21" x2="1590.25" y2="1632.07"/><line class="cls-2" x1="1590.25" y1="1632.07" x2="1577.81" y2="1625.47"/><line class="cls-2" x1="1577.81" y1="1625.47" x2="1564.53" y2="1620.37"/><line class="cls-2" x1="1564.53" y1="1620.37" x2="1550.94" y2="1617.2"/><line class="cls-2" x1="1550.94" y1="1617.2" x2="1536.99" y2="1615.48"/><polygon class="cls-3" points="1531.71 1725.43 1532.7 1615.36 1536.99 1615.48 1536 1725.56 1531.71 1725.43"/><line class="cls-2" x1="1531.71" y1="1725.43" x2="1532.7" y2="1615.36"/><line class="cls-2" x1="1532.7" y1="1615.36" x2="1536.99" y2="1615.48"/><line class="cls-2" x1="1536.99" y1="1615.48" x2="1536" y2="1725.56"/><line class="cls-2" x1="1536" y1="1725.56" x2="1531.71" y2="1725.43"/><line class="cls-2" x1="1701.35" y1="970.64" x2="1715.54" y2="969.48"/><line class="cls-2" x1="1715.54" y1="969.48" x2="1729.14" y2="966.93"/><line class="cls-2" x1="1729.14" y1="966.93" x2="1742.62" y2="962.97"/><line class="cls-2" x1="1742.62" y1="962.97" x2="1755.44" y2="956.69"/><line class="cls-2" x1="1755.44" y1="956.69" x2="1767.2" y2="949.06"/><line class="cls-2" x1="1767.2" y1="949.06" x2="1777.89" y2="940.09"/><line class="cls-2" x1="1777.89" y1="940.09" x2="1787.52" y2="929.78"/><line class="cls-2" x1="1787.52" y1="929.78" x2="1795.66" y2="918.64"/><line class="cls-2" x1="1795.66" y1="918.64" x2="1802.26" y2="906.19"/><line class="cls-2" x1="1802.26" y1="906.19" x2="1807.36" y2="892.92"/><line class="cls-2" x1="1807.36" y1="892.92" x2="1810.54" y2="879.33"/><line class="cls-2" x1="1810.54" y1="879.33" x2="1812.25" y2="865.38"/><polygon class="cls-3" points="1702.34 860.56 1812.38 861.08 1812.25 865.38 1702.18 864.38 1702.34 860.56"/><line class="cls-2" x1="1702.34" y1="860.56" x2="1812.38" y2="861.08"/><line class="cls-2" x1="1812.38" y1="861.08" x2="1812.25" y2="865.38"/><line class="cls-2" x1="1812.25" y1="865.38" x2="1702.18" y2="864.39"/><line class="cls-2" x1="1702.18" y1="864.39" x2="1702.34" y2="860.56"/><polyline class="cls-2" points="1857.07 1075.51 1853.87 1077.2 1851.27 1080.27 1850.16 1084.17 1850.98 1088.38"/><line class="cls-2" x1="1857.07" y1="1075.51" x2="1917.16" y2="1053.45"/><polyline class="cls-2" points="1930.04 1059.53 1927.88 1056.38 1924.81 1053.77 1920.94 1053.14 1917.16 1053.45"/><line class="cls-2" x1="1868.8" y1="1137.4" x2="1850.98" y2="1088.38"/><polyline class="cls-2" points="1868.76 1136.93 1870.45 1140.12 1873.52 1142.73 1877.38 1143.36 1881.64 1143.01"/><line class="cls-2" x1="1941.3" y1="1121.47" x2="1881.64" y2="1143.01"/><line class="cls-2" x1="1930.04" y1="1059.53" x2="1947.9" y2="1109.02"/><polyline class="cls-2" points="1941.3 1121.47 1944.93 1119.26 1947.06 1116.23 1948.17 1112.33 1947.39 1108.59"/><polyline class="cls-2" points="1863.68 1080.68 1860.52 1082.84 1858.9 1086.31 1859.17 1089.62"/><line class="cls-2" x1="1863.68" y1="1080.68" x2="1915.45" y2="1061.68"/><polyline class="cls-2" points="1924.39 1066.19 1922.7 1062.99 1919.24 1061.37 1915.45 1061.68"/><line class="cls-2" x1="1873.38" y1="1129.41" x2="1859.17" y2="1089.62"/><polyline class="cls-2" points="1873.38 1129.4 1875.51 1132.09 1878.97 1133.71 1882.76 1133.4"/><line class="cls-2" x1="1882.75" y1="1133.4" x2="1934.57" y2="1114.87"/><line class="cls-2" x1="1924.39" y1="1066.19" x2="1938.56" y2="1105.5"/><polyline class="cls-2" points="1934.57 1114.87 1937.72 1112.71 1939.35 1109.25 1939.04 1105.46"/><polyline class="cls-2" points="1904.92 1119.2 1907.21 1118.07 1907.93 1115.15 1906.79 1112.86 1904.35 1112.11 1902.06 1113.25 1900.83 1115.73 1902.48 1118.45 1904.92 1119.2"/><line class="cls-2" x1="2168.51" y1="1040.97" x2="2143.94" y2="973.46"/><line class="cls-2" x1="2168.51" y1="1040.97" x2="2245.76" y2="1013.22"/><line class="cls-2" x1="2245.76" y1="1013.22" x2="2221.18" y2="945.71"/><line class="cls-2" x1="2221.18" y1="945.71" x2="2143.94" y2="973.46"/><polyline class="cls-2" points="2184.3 1024.44 2188.95 1023.11 2192.5 1019.96 2194.56 1015.98 2194.64 1011.21 2192.84 1006.6 2189.73 1003.52 2184.8 1001.54 2180.07 1001.93 2176.01 1004.64 2172.97 1008.23 2171.94 1013.07 2172.8 1017.76 2175.47 1021.35 2179.49 1023.88 2184.3 1024.44"/><polyline class="cls-2" points="2217.14 1012.71 2221.8 1011.37 2225.35 1008.23 2227.4 1004.25 2227.45 999.01 2225.68 994.87 2222.06 991.35 2217.65 989.81 2212.92 990.2 2208.82 992.44 2205.82 996.49 2204.75 1000.86 2205.64 1006.03 2208.32 1009.62 2212.34 1012.15 2217.14 1012.71"/><polyline class="cls-2" points="2174.41 996.68 2179.06 995.35 2182.61 992.2 2184.63 987.75 2184.71 982.98 2182.95 978.84 2179.32 975.33 2174.91 973.78 2170.18 974.17 2166.08 976.41 2163.08 980.47 2162.01 984.84 2162.87 989.53 2165.58 993.59 2169.6 996.12 2174.41 996.68"/><polyline class="cls-2" points="2207.25 984.95 2211.43 983.65 2215.46 980.46 2217.51 976.49 2217.56 971.25 2215.79 967.1 2212.17 963.59 2207.76 962.05 2202.56 962.47 2198.45 964.71 2195.93 968.73 2194.38 973.14 2195.28 978.31 2198.43 981.86 2202.45 984.39 2207.25 984.95"/><line class="cls-2" x1="1012.39" y1="1320.34" x2="1137.86" y2="1329.12"/><line class="cls-2" x1="1137.86" y1="1329.12" x2="1160.45" y2="1005.86"/><line class="cls-2" x1="1034.51" y1="997.12" x2="1012.39" y2="1320.34"/><line class="cls-2" x1="1039.21" y1="1066.25" x2="1023.42" y2="1298.01"/><polyline class="cls-2" points="1023.42 1298.01 1023.69 1301.32 1025.42 1304.99 1028.45 1307.12 1032.35 1308.23"/><line class="cls-2" x1="1032.35" y1="1308.23" x2="1120.47" y2="1314.35"/><line class="cls-2" x1="1130.69" y1="1305.42" x2="1146.48" y2="1073.66"/><polyline class="cls-2" points="1120.47 1314.35 1124.21 1313.57 1127.41 1311.88 1129.54 1308.85 1130.69 1305.42"/><polyline class="cls-2" points="1146.48 1073.66 1147.05 1063.14 1145.29 1053.29 1141.64 1043.59 1136.61 1034.47 1129.33 1026.97 1121.18 1020.5 1111.76 1016.03 1102.03 1013.5 1091.47 1012.46 1081.11 1013.78 1071.37 1016.96 1062.26 1021.99 1054.24 1028.83 1047.77 1036.98 1043.26 1045.92 1040.29 1056.16 1039.21 1066.25"/><polyline class="cls-2" points="1077.57 1302.15 1080.33 1300.97 1082.5 1298.41 1082.74 1295.53 1081.09 1292.81 1078.13 1291.63 1075.29 1291.86 1073.05 1293.47 1071.86 1296.42 1072.56 1299.22 1074.65 1301.43 1077.57 1302.15"/><line class="cls-2" x1="1173.76" y1="1331.42" x2="1176.13" y2="1302.18"/><line class="cls-2" x1="1245.6" y1="1336.49" x2="1247.97" y2="1307.25"/><polyline class="cls-2" points="1247.97 1307.25 1243.06 1299.56 1237.31 1293.36 1230.23 1288.23 1221.88 1285.1 1213.17 1283.43 1204.62 1283.65 1196.22 1285.77 1188.45 1289.74 1181.31 1295.56 1176.13 1302.18"/><polyline class="cls-2" points="1239.57 1309.36 1239.23 1305.11 1236.51 1301.04 1232.38 1297.1 1226.91 1294.21 1220.05 1291.91 1212.8 1290.6 1205.67 1290.71 1198.65 1292.24 1192.62 1294.16 1188.12 1297.38 1184.65 1301.48 1183.58 1305.85 1184.4 1310.07 1186.64 1314.17 1190.77 1318.12 1196.72 1320.97 1203.1 1323.3 1210.31 1324.14 1217.92 1323.99 1224.5 1322.98 1230.49 1320.58 1235.5 1317.79 1238.5 1313.74 1239.57 1309.36"/><polyline class="cls-2" points="1211.1 1322.17 1212.91 1321.07 1213.19 1318.66 1211.66 1317.36 1209.77 1317.52 1208.46 1319.05 1209.13 1321.38 1211.1 1322.17"/><line class="cls-2" x1="1245.6" y1="1336.49" x2="1173.76" y2="1331.42"/><line class="cls-2" x1="1359.57" y1="1344.3" x2="1275.79" y2="1338.78"/><line class="cls-2" x1="1275.79" y1="1338.78" x2="1277.16" y2="1314.86"/><line class="cls-2" x1="1277.16" y1="1314.86" x2="1360.95" y2="1320.38"/><line class="cls-2" x1="1360.95" y1="1320.38" x2="1359.57" y2="1344.3"/><line class="cls-2" x1="1337.79" y1="1310.85" x2="1301.85" y2="1308.08"/><polyline class="cls-2" points="1301.85 1308.08 1300.23 1305.83 1298.62 1303.58 1296.97 1300.86 1294.88 1298.65 1293.23 1295.92 1292.09 1293.64 1290.52 1291.86 1289.38 1289.57 1288.79 1288.19 1288.24 1287.29 1287.69 1286.38 1287.14 1285.47 1287.06 1284.53 1286.98 1283.58 1286.87 1282.16 1286.68 1279.8 1286.48 1277.43 1286.68 1274.08 1286.85 1270.26 1287.48 1266.4 1287.65 1262.58 1287.81 1258.75 1288.01 1255.4 1288.77 1252.96 1289.04 1250.56 1288.89 1248.66 1289.25 1247.21 1289.64 1246.22 1290 1244.76 1290.39 1243.78 1290.79 1242.8 1291.15 1241.34 1291.98 1239.84 1292.81 1238.34 1293.67 1237.32 1294.51 1235.83 1295.34 1234.33 1296.16 1232.83 1297.51 1231.77 1298.34 1230.27 1299.68 1229.21 1300.98 1227.68 1302.32 1226.61 1303.66 1225.55 1305.01 1224.49 1306.82 1223.39 1308.16 1222.33 1309.5 1221.27 1311.36 1220.64 1312.74 1220.05 1314.59 1219.42 1316.44 1218.79 1317.86 1218.68 1319.71 1218.05 1321.13 1217.93 1322.04 1217.38 1322.99 1217.3 1323.93 1217.23 1324.41 1217.19 1324.88 1217.15 1325.39 1217.58 1325.86 1217.55 1326.34 1217.51"/><polyline class="cls-2" points="1337.79 1310.85 1339.52 1308.8 1341.69 1306.24 1343.9 1304.16 1345.64 1302.11 1347.85 1300.03 1349.55 1297.51 1351.33 1295.93 1352.59 1293.92 1353.46 1292.9 1354.33 1291.88 1354.72 1290.89 1355.12 1289.91 1355.55 1289.4 1355.95 1288.41 1356.31 1286.95 1356.59 1284.55 1356.86 1282.15 1357.54 1278.76 1357.74 1275.41 1357.87 1271.11 1358.03 1267.29 1358.23 1263.94 1358.43 1260.59 1358.67 1257.71 1358.48 1255.35 1358.33 1253.46 1358.68 1252 1358.61 1251.05 1358.02 1249.67 1357.94 1248.73 1357.82 1247.31 1357.23 1245.93 1356.64 1244.55 1356.53 1243.13 1355.9 1241.28 1354.84 1239.93 1354.25 1238.55 1353.62 1236.7 1352.56 1235.36 1351.5 1234.02 1350.43 1232.68 1349.37 1231.33 1348.31 1229.99 1347.25 1228.65 1346.19 1227.31 1344.65 1226.01 1343.12 1224.7 1342.09 1223.84 1340.56 1222.53 1339.06 1221.7 1337.09 1220.91 1335.6 1220.08 1334.14 1219.72 1332.64 1218.89 1331.18 1218.54 1330.2 1218.14 1329.21 1217.75 1328.7 1217.31 1327.76 1217.39 1327.28 1217.43 1326.81 1217.47 1326.34 1217.51"/><polyline class="cls-2" points="1289.11 1315.31 1292.66 1312.16 1294.67 1307.71 1295.71 1302.87 1294.85 1298.17"/><polyline class="cls-2" points="1346.94 1300.58 1345.08 1306.92 1346.1 1313.5 1348.97 1319.46"/><line class="cls-2" x1="1477.92" y1="1615.08" x2="1453.68" y2="1638.96"/><line class="cls-2" x1="1453.68" y1="1638.96" x2="1454.13" y2="1627.02"/><line class="cls-2" x1="1454.13" y1="1627.02" x2="1417.91" y2="1626.65"/><line class="cls-2" x1="1417.91" y1="1626.65" x2="1417.89" y2="1614.75"/><line class="cls-2" x1="1477.92" y1="1615.08" x2="1454.07" y2="1591.32"/><line class="cls-2" x1="1454.07" y1="1591.32" x2="1454.09" y2="1603.22"/><line class="cls-2" x1="1454.09" y1="1603.22" x2="1418.34" y2="1602.81"/><line class="cls-2" x1="1418.34" y1="1602.81" x2="1417.89" y2="1614.75"/><polygon class="cls-3" points="1418.34 1602.81 1454.09 1603.22 1454.07 1591.32 1477.91 1615.08 1453.68 1638.96 1454.13 1627.02 1417.91 1626.65 1418.34 1602.81"/><line class="cls-2" x1="1418.34" y1="1602.81" x2="1454.09" y2="1603.22"/><line class="cls-2" x1="1454.09" y1="1603.22" x2="1454.07" y2="1591.32"/><line class="cls-2" x1="1454.07" y1="1591.32" x2="1477.92" y2="1615.08"/><line class="cls-2" x1="1477.92" y1="1615.08" x2="1453.68" y2="1638.96"/><line class="cls-2" x1="1453.68" y1="1638.96" x2="1454.13" y2="1627.02"/><line class="cls-2" x1="1454.13" y1="1627.02" x2="1417.91" y2="1626.65"/><line class="cls-2" x1="1417.91" y1="1626.65" x2="1418.34" y2="1602.81"/><line class="cls-2" x1="1418.34" y1="1602.81" x2="1418.34" y2="1602.81"/><line class="cls-2" x1="989.86" y1="277" x2="980.43" y2="283.97"/><polygon class="cls-3" points="989.86 277 970.71 299.05 963.24 289.18 989.86 277"/><line class="cls-2" x1="989.86" y1="277" x2="970.71" y2="299.05"/><line class="cls-2" x1="970.71" y1="299.05" x2="963.24" y2="289.18"/><line class="cls-2" x1="963.24" y1="289.18" x2="989.86" y2="277"/><line class="cls-2" x1="494.02" y1="647.56" x2="505.7" y2="638.99"/><polygon class="cls-3" points="494.02 647.56 513.17 625.52 520.64 635.39 494.02 647.56"/><line class="cls-2" x1="494.02" y1="647.56" x2="513.17" y2="625.52"/><line class="cls-2" x1="513.17" y1="625.52" x2="520.64" y2="635.39"/><line class="cls-2" x1="520.64" y1="635.39" x2="494.02" y2="647.56"/><line class="cls-2" x1="998.6" y1="1291.47" x2="991.09" y2="1281.13"/><polygon class="cls-3" points="998.6 1291.47 976.6 1272.79 986.93 1265.28 998.6 1291.47"/><line class="cls-2" x1="998.6" y1="1291.47" x2="976.6" y2="1272.79"/><line class="cls-2" x1="976.6" y1="1272.79" x2="986.93" y2="1265.28"/><line class="cls-2" x1="986.93" y1="1265.28" x2="998.6" y2="1291.47"/><line class="cls-2" x1="491.16" y1="612.56" x2="499.7" y2="623.77"/><polygon class="cls-3" points="491.16 612.56 513.16 631.24 502.83 638.75 491.16 612.56"/><line class="cls-2" x1="491.16" y1="612.56" x2="513.16" y2="631.24"/><line class="cls-2" x1="513.16" y1="631.24" x2="502.83" y2="638.75"/><line class="cls-2" x1="502.83" y1="638.75" x2="491.16" y2="612.56"/><text class="cls-5" transform="translate(793.9 688.71) rotate(-0.41) scale(0.67 1)">Bed<tspan class="cls-6" x="97.39" y="0">r</tspan><tspan x="117.51" y="0">oo</tspan><tspan class="cls-7" x="180.43" y="0">m</tspan></text><text class="cls-8" transform="translate(782.13 743.85) rotate(-0.41) scale(0.67 1)"><tspan class="cls-9">18</tspan><tspan x="54.38" y="0">&apos;</tspan><tspan class="cls-9" x="70.22" y="0">3</tspan><tspan class="cls-10" x="103.15" y="0"> </tspan><tspan x="116.96" y="0">x</tspan><tspan class="cls-10" x="145.85" y="0"> </tspan><tspan class="cls-9" x="159.66" y="0">12</tspan><tspan x="213.3" y="0">&apos;0</tspan></text><text class="cls-8" transform="translate(761.77 799.04) rotate(-0.41) scale(0.67 1)"><tspan class="cls-9">5</tspan><tspan class="cls-10" x="31.69" y="0">.</tspan><tspan class="cls-9" x="46.89" y="0">5</tspan><tspan class="cls-11" x="78.58" y="0">7</tspan><tspan class="cls-10" x="108.85" y="0"> </tspan><tspan class="cls-12" x="122.66" y="0">x</tspan><tspan class="cls-10" x="151.07" y="0"> </tspan><tspan class="cls-9" x="164.89" y="0">3</tspan><tspan class="cls-13" x="197.81" y="0">.</tspan><tspan class="cls-9" x="213.54" y="0">65</tspan><tspan x="278.16" y="0">m</tspan></text><polygon class="cls-3" points="1013.44 349.83 1020.93 348.27 1027.79 344.85 1033.59 340.09 1038.33 333.99 1041.1 327.09 1042.41 319.84 1041.79 312.28 1039.28 304.86 1035.42 298.51 1029.76 293.26 1023.26 289.51 1015.93 287.25 1008.29 286.92 1001.27 288.45 994.41 291.87 988.13 296.67 983.87 302.73 980.63 309.66 979.83 317.35 980.45 324.91 982.45 331.89 986.77 338.2 991.97 343.49 998.94 347.21 1006.26 349.47 1013.44 349.83"/><line class="cls-2" x1="1013.44" y1="349.83" x2="1020.93" y2="348.27"/><line class="cls-2" x1="1020.93" y1="348.27" x2="1027.79" y2="344.85"/><line class="cls-2" x1="1027.79" y1="344.85" x2="1033.59" y2="340.09"/><line class="cls-2" x1="1033.59" y1="340.09" x2="1038.33" y2="333.99"/><line class="cls-2" x1="1038.33" y1="333.99" x2="1041.1" y2="327.09"/><line class="cls-2" x1="1041.1" y1="327.09" x2="1042.41" y2="319.84"/><line class="cls-2" x1="1042.41" y1="319.84" x2="1041.79" y2="312.28"/><line class="cls-2" x1="1041.79" y1="312.28" x2="1039.28" y2="304.86"/><line class="cls-2" x1="1039.28" y1="304.86" x2="1035.42" y2="298.51"/><line class="cls-2" x1="1035.42" y1="298.51" x2="1029.76" y2="293.26"/><line class="cls-2" x1="1029.76" y1="293.26" x2="1023.26" y2="289.51"/><line class="cls-2" x1="1023.26" y1="289.51" x2="1015.93" y2="287.25"/><line class="cls-2" x1="1015.93" y1="287.25" x2="1008.29" y2="286.92"/><line class="cls-2" x1="1008.29" y1="286.92" x2="1001.27" y2="288.45"/><line class="cls-2" x1="1001.27" y1="288.45" x2="994.41" y2="291.87"/><line class="cls-2" x1="994.41" y1="291.87" x2="988.13" y2="296.67"/><line class="cls-2" x1="988.13" y1="296.67" x2="983.87" y2="302.73"/><line class="cls-2" x1="983.87" y1="302.73" x2="980.63" y2="309.66"/><line class="cls-2" x1="980.63" y1="309.66" x2="979.83" y2="317.35"/><line class="cls-2" x1="979.83" y1="317.35" x2="980.45" y2="324.91"/><line class="cls-2" x1="980.45" y1="324.91" x2="982.45" y2="331.89"/><line class="cls-2" x1="982.45" y1="331.89" x2="986.77" y2="338.21"/><line class="cls-2" x1="986.77" y1="338.21" x2="991.97" y2="343.49"/><line class="cls-2" x1="991.97" y1="343.49" x2="998.94" y2="347.21"/><line class="cls-2" x1="998.94" y1="347.21" x2="1006.26" y2="349.47"/><line class="cls-2" x1="1006.26" y1="349.47" x2="1013.44" y2="349.83"/><line class="cls-2" x1="1555.67" y1="179.75" x2="1549.6" y2="181.2"/><polygon class="cls-3" points="1555.67 179.75 1528.98 190.98 1526.51 178.32 1555.67 179.75"/><line class="cls-2" x1="1555.67" y1="179.75" x2="1528.98" y2="190.98"/><line class="cls-2" x1="1528.98" y1="190.98" x2="1526.51" y2="178.33"/><line class="cls-2" x1="1526.51" y1="178.33" x2="1555.67" y2="179.75"/><line class="cls-2" x1="1004.64" y1="271.51" x2="1012.17" y2="270.42"/><polygon class="cls-3" points="1004.64 271.51 1031.38 260.75 1033.33 272.97 1004.64 271.51"/><line class="cls-2" x1="1004.64" y1="271.51" x2="1031.38" y2="260.75"/><line class="cls-2" x1="1031.38" y1="260.75" x2="1033.33" y2="272.97"/><line class="cls-2" x1="1033.33" y1="272.97" x2="1004.64" y2="271.51"/><line class="cls-2" x1="1270.33" y1="818.3" x2="1270.3" y2="812.12"/><polygon class="cls-3" points="1270.33 818.3 1264.19 789.76 1276.56 789.7 1270.33 818.3"/><line class="cls-2" x1="1270.33" y1="818.3" x2="1264.19" y2="789.76"/><line class="cls-2" x1="1264.19" y1="789.76" x2="1276.56" y2="789.7"/><line class="cls-2" x1="1276.56" y1="789.7" x2="1270.33" y2="818.3"/><line class="cls-2" x1="1277.41" y1="142.53" x2="1277.55" y2="150.13"/><polygon class="cls-3" points="1277.41 142.53 1283.51 170.59 1271.14 170.66 1277.41 142.53"/><line class="cls-2" x1="1277.41" y1="142.53" x2="1283.51" y2="170.6"/><line class="cls-2" x1="1283.51" y1="170.6" x2="1271.14" y2="170.66"/><line class="cls-2" x1="1271.14" y1="170.66" x2="1277.41" y2="142.53"/><text class="cls-5" transform="matrix(0.67, 0, 0, 1, 1215.21, 432.54)">Bed<tspan class="cls-6" x="97.39" y="0">r</tspan><tspan x="117.51" y="0">oo</tspan><tspan class="cls-7" x="180.43" y="0">m</tspan></text><text class="cls-8" transform="matrix(0.67, 0, 0, 1, 1206.04, 487.59)"><tspan class="cls-9">14</tspan><tspan class="cls-7" x="55.92" y="0">&apos;</tspan><tspan class="cls-9" x="71.77" y="0">0</tspan><tspan class="cls-10" x="105.69" y="0"> </tspan><tspan x="119.51" y="0">x</tspan><tspan class="cls-10" x="148.39" y="0"> </tspan><tspan class="cls-9" x="162.21" y="0">11</tspan><tspan x="205.22" y="0">&apos;6</tspan></text><text class="cls-5" transform="matrix(0.67, 0, 0, 1, 1179.54, 542.59)">4<tspan class="cls-10" x="34.42" y="0">.</tspan><tspan x="49.62" y="0">2</tspan><tspan class="cls-11" x="81.75" y="0">5</tspan><tspan class="cls-14" x="113.97" y="0"> </tspan><tspan class="cls-15" x="127.78" y="0">x</tspan><tspan class="cls-10" x="156.19" y="0"> </tspan><tspan class="cls-16" x="170" y="0">3</tspan><tspan class="cls-17" x="202.93" y="0">.</tspan><tspan class="cls-16" x="218.66" y="0">48</tspan><tspan class="cls-7" x="285.95" y="0">m</tspan></text><text class="cls-5" transform="translate(1694.02 439.84) rotate(-0.06) scale(0.67 1)">L<tspan class="cls-18" x="29.68" y="0">i</tspan><tspan class="cls-12" x="42.94" y="0">v</tspan><tspan class="cls-18" x="72.17" y="0">i</tspan><tspan class="cls-16" x="85.43" y="0">ng</tspan><tspan class="cls-13" x="149.07" y="0"> </tspan><tspan class="cls-19" x="163.41" y="0">R</tspan><tspan class="cls-20" x="197.33" y="0">oo</tspan><tspan class="cls-7" x="260.25" y="0">m</tspan></text><text class="cls-8" transform="translate(1708.85 494.89) rotate(-0.06) scale(0.67 1)"><tspan class="cls-9">16</tspan><tspan x="54.43" y="0">&apos;</tspan><tspan class="cls-9" x="70.27" y="0">3</tspan><tspan class="cls-10" x="103.2" y="0"> </tspan><tspan x="117.01" y="0">x</tspan><tspan class="cls-10" x="145.9" y="0"> </tspan><tspan class="cls-9" x="159.71" y="0">13</tspan><tspan class="cls-7" x="214.14" y="0">&apos;6</tspan></text><text class="cls-8" transform="translate(1684.73 549.95) rotate(-0.06) scale(0.67 1)"><tspan class="cls-9">4</tspan><tspan class="cls-10" x="34.42" y="0">.</tspan><tspan class="cls-9" x="49.62" y="0">9</tspan><tspan class="cls-11" x="82.55" y="0">2</tspan><tspan class="cls-14" x="115.2" y="0"> </tspan><tspan class="cls-15" x="129.01" y="0">x</tspan><tspan class="cls-10" x="157.42" y="0"> </tspan><tspan class="cls-16" x="171.24" y="0">4</tspan><tspan class="cls-17" x="205.66" y="0">.</tspan><tspan class="cls-9" x="221.39" y="0">08</tspan><tspan x="288.19" y="0">m</tspan></text><line class="cls-2" x1="2283.39" y1="536.36" x2="2274.96" y2="532.29"/><polygon class="cls-3" points="2283.39 536.36 2255.18 529.14 2260.95 518.2 2283.39 536.36"/><line class="cls-2" x1="2283.39" y1="536.36" x2="2255.18" y2="529.14"/><line class="cls-2" x1="2255.18" y1="529.14" x2="2260.95" y2="518.2"/><line class="cls-2" x1="2260.95" y1="518.2" x2="2283.39" y2="536.36"/><line class="cls-2" x1="1571.52" y1="181.31" x2="1580.46" y2="185.81"/><polygon class="cls-3" points="1571.52 181.31 1599.72 188.52 1593.99 199.94 1571.52 181.31"/><line class="cls-2" x1="1571.52" y1="181.31" x2="1599.72" y2="188.52"/><line class="cls-2" x1="1599.72" y1="188.52" x2="1593.99" y2="199.94"/><line class="cls-2" x1="1593.99" y1="199.94" x2="1571.52" y2="181.31"/><line class="cls-2" x1="1647.18" y1="820.79" x2="1652.91" y2="815.09"/><polygon class="cls-3" points="1647.18 820.79 1662.31 796.22 1671.13 805.02 1647.18 820.79"/><line class="cls-2" x1="1647.18" y1="820.79" x2="1662.31" y2="796.22"/><line class="cls-2" x1="1662.31" y1="796.22" x2="1671.13" y2="805.02"/><line class="cls-2" x1="1671.13" y1="805.02" x2="1647.18" y2="820.79"/><line class="cls-2" x1="2113.98" y1="339.76" x2="2109.16" y2="344.91"/><polygon class="cls-3" points="2113.98 339.76 2098.88 364.8 2089.6 356.04 2113.98 339.76"/><line class="cls-2" x1="2113.98" y1="339.76" x2="2098.88" y2="364.8"/><line class="cls-2" x1="2098.88" y1="364.8" x2="2089.6" y2="356.04"/><line class="cls-2" x1="2089.6" y1="356.04" x2="2113.98" y2="339.76"/><polygon class="cls-3" points="2023.13 370.05 2029.67 368.56 2035.12 365.26 2039.93 360.1 2043.29 354.59 2044.64 347.81 2044.1 341.19 2041.66 334.73 2037.42 329.36 2031.87 325.53 2025.96 323.15 2019.26 322.75 2012.71 324.24 2006.8 327.58 2001.94 332.26 1998.62 338.25 1997.27 345.02 1997.81 351.65 2000.25 358.11 2004.46 363.01 2010.05 367.31 2016.43 369.65 2023.13 370.05"/><line class="cls-2" x1="2023.13" y1="370.05" x2="2029.67" y2="368.56"/><line class="cls-2" x1="2029.67" y1="368.56" x2="2035.12" y2="365.26"/><line class="cls-2" x1="2035.12" y1="365.26" x2="2039.93" y2="360.1"/><line class="cls-2" x1="2039.93" y1="360.1" x2="2043.29" y2="354.59"/><line class="cls-2" x1="2043.29" y1="354.59" x2="2044.64" y2="347.81"/><line class="cls-2" x1="2044.64" y1="347.81" x2="2044.1" y2="341.19"/><line class="cls-2" x1="2044.1" y1="341.19" x2="2041.66" y2="334.73"/><line class="cls-2" x1="2041.66" y1="334.73" x2="2037.42" y2="329.36"/><line class="cls-2" x1="2037.42" y1="329.36" x2="2031.86" y2="325.53"/><line class="cls-2" x1="2031.86" y1="325.53" x2="2025.96" y2="323.15"/><line class="cls-2" x1="2025.96" y1="323.15" x2="2019.26" y2="322.75"/><line class="cls-2" x1="2019.26" y1="322.75" x2="2012.71" y2="324.24"/><line class="cls-2" x1="2012.71" y1="324.24" x2="2006.8" y2="327.58"/><line class="cls-2" x1="2006.8" y1="327.58" x2="2001.94" y2="332.26"/><line class="cls-2" x1="2001.94" y1="332.26" x2="1998.62" y2="338.25"/><line class="cls-2" x1="1998.62" y1="338.25" x2="1997.27" y2="345.02"/><line class="cls-2" x1="1997.27" y1="345.02" x2="1997.81" y2="351.65"/><line class="cls-2" x1="1997.81" y1="351.65" x2="2000.25" y2="358.11"/><line class="cls-2" x1="2000.25" y1="358.11" x2="2004.46" y2="363.01"/><line class="cls-2" x1="2004.46" y1="363.01" x2="2010.05" y2="367.31"/><line class="cls-2" x1="2010.05" y1="367.31" x2="2016.43" y2="369.65"/><line class="cls-2" x1="2016.43" y1="369.65" x2="2023.13" y2="370.05"/><text class="cls-5" transform="matrix(0.67, 0, 0, 1, 1971.68, 845.38)">K<tspan class="cls-18" x="35.96" y="0">i</tspan><tspan class="cls-10" x="49.21" y="0">t</tspan><tspan class="cls-12" x="67.12" y="0">c</tspan><tspan x="96.53" y="0">h</tspan><tspan class="cls-11" x="127.89" y="0">e</tspan><tspan class="cls-21" x="159" y="0">n</tspan></text><text class="cls-8" transform="matrix(0.67, 0, 0, 1, 1955.27, 900.46)"><tspan class="cls-9">17</tspan><tspan class="cls-7" x="51.24" y="0">&apos;</tspan><tspan class="cls-9" x="67.09" y="0">0</tspan><tspan class="cls-10" x="101.01" y="0"> </tspan><tspan x="114.83" y="0">x</tspan><tspan class="cls-10" x="143.71" y="0"> </tspan><tspan class="cls-9" x="157.53" y="0">8</tspan><tspan x="190.4" y="0">&apos;9</tspan></text><text class="cls-5" transform="matrix(0.67, 0, 0, 1, 1929.81, 955.51)">5<tspan class="cls-10" x="31.69" y="0">.</tspan><tspan x="46.89" y="0">1</tspan><tspan class="cls-11" x="68.4" y="0">8</tspan><tspan class="cls-10" x="101.8" y="0"> </tspan><tspan class="cls-12" x="115.61" y="0">x</tspan><tspan class="cls-10" x="144.02" y="0"> </tspan><tspan x="157.84" y="0">2</tspan><tspan class="cls-13" x="189.97" y="0">.</tspan><tspan x="205.7" y="0">67</tspan><tspan class="cls-22" x="268.36" y="0">m</tspan></text><line class="cls-2" x1="1708.56" y1="1052.9" x2="1714.55" y2="1050.5"/><polygon class="cls-3" points="1708.56 1052.9 1732.98 1037.09 1737.29 1049.12 1708.56 1052.9"/><line class="cls-2" x1="1708.56" y1="1052.9" x2="1732.98" y2="1037.09"/><line class="cls-2" x1="1732.98" y1="1037.09" x2="1737.29" y2="1049.12"/><line class="cls-2" x1="1737.29" y1="1049.12" x2="1708.56" y2="1052.9"/><line class="cls-2" x1="2458.72" y1="781.99" x2="2451.31" y2="784.51"/><polygon class="cls-3" points="2458.72 781.99 2433.79 797.37 2429.99 785.77 2458.72 781.99"/><line class="cls-2" x1="2458.72" y1="781.99" x2="2433.79" y2="797.37"/><line class="cls-2" x1="2433.79" y1="797.37" x2="2429.99" y2="785.77"/><line class="cls-2" x1="2429.99" y1="785.77" x2="2458.72" y2="781.99"/><line class="cls-2" x1="2446.92" y1="952" x2="2443.39" y2="943.72"/><polygon class="cls-3" points="2446.92 952 2429.78 928.64 2441.25 923.42 2446.92 952"/><line class="cls-2" x1="2446.92" y1="952" x2="2429.77" y2="928.64"/><line class="cls-2" x1="2429.77" y1="928.64" x2="2441.25" y2="923.42"/><line class="cls-2" x1="2441.25" y1="923.42" x2="2446.92" y2="952"/><line class="cls-2" x1="2273.78" y1="558.57" x2="2277.83" y2="567.29"/><polygon class="cls-3" points="2273.78 558.57 2290.93 581.93 2279.41 586.68 2273.78 558.57"/><line class="cls-2" x1="2273.78" y1="558.57" x2="2290.93" y2="581.93"/><line class="cls-2" x1="2290.93" y1="581.93" x2="2279.41" y2="586.68"/><line class="cls-2" x1="2279.41" y1="586.68" x2="2273.78" y2="558.57"/></svg>